<?xml version="1.0" encoding="utf-8"?>
<!-- Generator: Adobe Illustrator 22.1.0, SVG Export Plug-In . SVG Version: 6.00 Build 0)  -->
<svg version="1.1" id="Layer_1" xmlns="http://www.w3.org/2000/svg" xmlns:xlink="http://www.w3.org/1999/xlink" x="0px" y="0px"
	 viewBox="0 0 1920 1344" style="enable-background:new 0 0 1920 1344;" xml:space="preserve">
<style type="text/css">
	.st0{fill:#C8E3F7;}
	.st1{fill:#44ACF5;}
	.st2{fill:#73C1F8;}
	.st3{fill:#92CDF7;}
	.st4{fill:#AFDAF9;}
	.st5{fill:#6DBEF7;}
	.st6{fill:#7EC4F6;}
	.st7{fill:#68BCF8;}
	.st8{fill:#83C6F5;}
	.st9{fill:#AEDAF9;}
	.st10{fill:#72C0F8;}
	.st11{fill:#6FBFF7;}
	.st12{fill:#A9D7F8;}
	.st13{fill:#9DD2F8;}
	.st14{fill:#A4D5F8;}
	.st15{fill:#8CCAF6;}
	.st16{fill:#A3D4F8;}
	.st17{fill:#8BC9F6;}
	.st18{fill:#78C2F8;}
	.st19{fill:#91CDF7;}
	.st20{fill:#94CEF7;}
	.st21{fill:#8AC9F6;}
	.st22{fill:#79C3F8;}
	.st23{fill:#98CFF7;}
	.st24{fill:#6ABCF7;}
	.st25{fill:#71BFF8;}
	.st26{fill:#91CCF6;}
	.st27{fill:#A1D3F8;}
	.st28{fill:#84C6F6;}
	.st29{fill:#A7D7F8;}
	.st30{fill:#7CC5F8;}
	.st31{fill:#ABD8F9;}
	.st32{fill:#BEE1FA;}
	.st33{fill:#BBE0FA;}
	.st34{fill:#B6DDFA;}
	.st35{fill:#76C1F8;}
	.st36{fill:#77C2F8;}
	.st37{fill:#BADFFA;}
	.st38{fill:#B8DEFA;}
	.st39{fill:#B4DDF9;}
	.st40{fill:#BCE0F9;}
	.st41{fill:#B3DCF9;}
	.st42{fill:#7AC3F7;}
	.st43{fill:#A7D7F9;}
	.st44{fill:#94CDF7;}
	.st45{fill:#B7DEFA;}
	.st46{fill:#AAD8F9;}
	.st47{fill:#A3D5F8;}
	.st48{fill:#BCDDF5;}
	.st49{fill:#BADEF8;}
	.st50{fill:#C7E3F7;}
	.st51{fill:#90CCF7;}
	.st52{fill:#84C7F6;}
	.st53{fill:#86C8F8;}
	.st54{fill:#75C1F8;}
	.st55{fill:#A2D4F8;}
	.st56{fill:#B2DBF9;}
	.st57{fill:#92CDF6;}
	.st58{fill:#71C0F8;}
	.st59{fill:#68BBF7;}
	.st60{fill:#D9ECFA;}
	.st61{fill:#C3E2F8;}
	.st62{fill:#CCE6F8;}
	.st63{fill:#C3E2F9;}
	.st64{fill:#D3E9F9;}
	.st65{fill:#84C6F5;}
	.st66{fill:#68BAF6;}
	.st67{fill:#5EB7F7;}
	.st68{fill:#57B4F6;}
	.st69{fill:#A5D5F8;}
	.st70{fill:#83C5F6;}
	.st71{fill:#66BAF7;}
	.st72{fill:#C1E0F6;}
	.st73{fill:#B6DDF9;}
	.st74{fill:#A5D5F9;}
	.st75{fill:#ADD9F9;}
	.st76{fill:#9ED2F8;}
	.st77{fill:#9CD1F7;}
	.st78{fill:#96CFF7;}
	.st79{fill:#B1D9F6;}
	.st80{fill:#C0DFF6;}
	.st81{fill:#BCDDF6;}
	.st82{fill:#E0EFFA;}
	.st83{fill:#7BC4F8;}
	.st84{fill:#95CEF7;}
	.st85{fill:#9AD0F7;}
	.st86{fill:#7BC3F6;}
	.st87{fill:#83C6F6;}
	.st88{fill:#87C8F6;}
	.st89{fill:#8FCBF6;}
</style>
<title>simplified_sb-bg</title>
<g id="bg_color">
	<rect x="-27.1" y="-33.1" class="st0" width="1974.2" height="1410.1"/>
</g>
<g id="simplified">
	<g id="Layer_154">
		<polygon class="st1" points="1930,1448 1930,1181.8 1925.6,1177 1766,1187 1766,1448 		"/>
	</g>
	<g id="Layer_153">
		<polygon class="st2" points="1245.6,1244.7 1439.1,1448 1519.6,1448 1429.7,1171.1 		"/>
	</g>
	<g id="Layer_152">
		<polygon class="st3" points="1440.2,934.3 1245.6,1244.7 1429.7,1171.1 		"/>
	</g>
	<g id="Layer_151">
		<polygon class="st4" points="251.2,29.2 109.1,166.1 398.5,187.2 		"/>
	</g>
	<g id="Layer_150">
		<polygon class="st5" points="1024.5,1407.8 914,1276.3 914,1448 977.8,1448 		"/>
	</g>
	<g id="Layer_149">
		<polygon class="st6" points="1024.6,1407.8 1245.1,1245 1245.6,1244.7 914.1,1276.3 		"/>
	</g>
	<g id="Layer_148">
		<polygon class="st7" points="93.3,1323.6 121.5,1448 246,1448 246,1447.8 		"/>
	</g>
	<g id="Layer_147">
		<polygon class="st3" points="903.6,1186.8 1245.6,1244.7 887.8,1165.8 		"/>
	</g>
	<g id="Layer_146">
		<polygon class="st8" points="1245.6,1244.7 903.6,1186.8 914.1,1276.3 		"/>
	</g>
	<g id="Layer_145">
		<polygon class="st9" points="777.3,923.8 687.8,855.4 735.2,955.3 		"/>
	</g>
	<g id="Layer_144">
		<polygon class="st4" points="777.3,923.8 735.2,955.3 745.7,960.6 		"/>
	</g>
	<g id="Layer_143">
		<polygon class="st10" points="818.5,1448 545.8,1292.1 507.9,1448 		"/>
	</g>
	<g id="Layer_142">
		<polygon class="st11" points="1766,1349.7 1766,1171 1429.7,1171 1430,1171.1 1430,1171.2 1429.7,1171.1 1430,1448 1766,1448 
			1766,1350.4 1766.4,1349.9 1766,1349.7 		"/>
	</g>
	<g id="Layer_140">
		<polygon class="st12" points="777.3,923.8 745.7,960.6 746,996 		"/>
	</g>
	<g id="Layer_139">
		<polygon class="st13" points="777.3,923.8 746,996 745.5,997 745.7,997.4 887.8,1165.8 		"/>
	</g>
	<g id="Layer_138">
		<polygon class="st14" points="1398.1,755.4 1708.5,597.6 1645.4,292.4 		"/>
	</g>
	<g id="Layer_137">
		<polygon class="st15" points="1803.2,318.7 1645.4,292.4 1708.5,597.6 		"/>
	</g>
	<g id="Layer_136">
		<polygon class="st16" points="293.2,423.9 398.5,187.2 109.1,166.1 		"/>
	</g>
	<g id="Layer_135">
		<polygon class="st17" points="545.8,1292 545.8,1292.1 866.7,1250 745.5,997 		"/>
	</g>
	<g id="Layer_134">
		<polygon class="st18" points="903.8,1448 866.7,1250 545.8,1292.1 818.5,1448 		"/>
	</g>
	<g id="Layer_133">
		<polygon class="st19" points="887.8,1165.8 745.7,997.4 866.7,1250 		"/>
	</g>
	<g id="Layer_132">
		<polygon class="st20" points="887.8,1165.8 866.7,1250 903.6,1186.8 		"/>
	</g>
	<g id="Layer_131">
		<polygon class="st21" points="914.1,1276.3 903.6,1186.8 866.7,1250 		"/>
	</g>
	<g id="Layer_130">
		<polygon class="st22" points="866.7,1250 903.8,1448 914,1448 914,1376.2 914,1276.2 		"/>
	</g>
	<g id="Layer_128">
		<polygon class="st23" points="1619.1,160.9 1561.2,208.2 1645.4,292.4 		"/>
	</g>
	<g id="Layer_127">
		<polygon class="st24" points="51.2,1397.3 77.2,1448 121,1448 121,1445.9 93.3,1323.6 		"/>
	</g>
	<g id="Layer_126">
		<polygon class="st25" points="93,1324.2 93.3,1323.6 -10,1349 -10,1351.5 -10,1356.2 -10,1361 -10,1365.7 -10,1370.5 -10,1375.2 
			-10,1380 -10,1384.7 -10,1389.5 -10,1394.2 -10,1397 -3.4,1397 15.9,1397 35.3,1397 51.4,1397.1 		"/>
	</g>
	<g id="Layer_124">
		<polygon class="st26" points="314,1044.7 157.6,1003 156.5,1002.7 93.4,1323 93.4,1323.2 93.3,1323.6 314,1045.2 		"/>
	</g>
	<g id="Layer_123">
		<polygon class="st27" points="366.3,882 156.5,1002.7 314.3,1044.8 366.8,882 		"/>
	</g>
	<g id="Layer_122">
		<polygon class="st28" points="-10,1088.3 93.5,1323.6 156.7,1002.7 -10,1011.5 		"/>
	</g>
	<g id="Layer_121">
		<polygon class="st29" points="819,-2.2 398.1,187.2 819,418.7 		"/>
	</g>
	<g id="Layer_120">
		<polygon class="st30" points="1930,121.1 1803.2,318.7 1930,264.4 		"/>
	</g>
	<g id="Layer_119">
		<polygon class="st31" points="1229.8,660.7 777.3,923.8 887.8,1165.8 		"/>
	</g>
	<g id="Layer_118">
		<polygon class="st32" points="929.9,623.9 777.3,923.8 1229.8,660.7 		"/>
	</g>
	<g id="Layer_117">
		<polygon class="st33" points="929.9,623.9 1229.8,660.7 972,587 		"/>
	</g>
	<g id="Layer_116">
		<polygon class="st4" points="1166.6,571.3 972,587 1229.8,660.7 		"/>
	</g>
	<g id="Layer_115">
		<polygon class="st34" points="1166.6,571.3 1229.8,660.7 1645.4,292.4 		"/>
	</g>
	<g id="Layer_114">
		<polygon class="st4" points="1398.1,755.4 1645.4,292.4 1229.8,660.7 		"/>
	</g>
	<g id="Layer_113">
		<polygon class="st35" points="1803.2,318.7 1708.6,597.5 1930,577.8 1930,478.8 		"/>
	</g>
	<g id="Layer_112">
		<polygon class="st36" points="1803.2,318.7 1930,478.8 1930,369.4 		"/>
	</g>
	<g id="Layer_111">
		<polygon class="st37" points="929.9,623.9 966.7,560.7 819.4,418.7 		"/>
	</g>
	<g id="Layer_110">
		<polygon class="st32" points="972,281.9 819.4,418.7 966.7,560.7 		"/>
	</g>
	<g id="Layer_109">
		<polygon class="st38" points="929.9,623.9 972,587 966.7,560.7 		"/>
	</g>
	<g id="Layer_108">
		<polygon class="st39" points="1166.6,571.3 966.7,560.7 972,587 		"/>
	</g>
	<g id="Layer_107">
		<polygon class="st39" points="972,281.9 966.7,560.7 1166.6,571.3 		"/>
	</g>
	<g id="Layer_106">
		<polygon class="st40" points="1165,-6.2 1165,-5.5 1166.6,8 1166.7,8 1167.9,-8 1165,-8 		"/>
	</g>
	<g id="Layer_105">
		<polygon class="st41" points="1407.2,-8 1619.1,160.9 1930,57.2 1930,25.1 1814.2,-8 		"/>
	</g>
	<g id="Layer_104">
		<polygon class="st42" points="1930,577.8 1708.2,597.6 1930,807.5 		"/>
	</g>
	<g id="Layer_102">
		<polygon class="st43" points="1519.1,802.8 1708.1,598 1708.3,597.7 1398.1,755.4 		"/>
	</g>
	<g id="Layer_101">
		<polygon class="st27" points="-1,819 156.5,1002.7 366.9,881.7 -1,818.6 		"/>
	</g>
	<g id="Layer_100">
		<polygon class="st44" points="156.5,1002.7 -1,819 -1.5,819 -10,858.4 -10,867.4 -10,883.6 -10,899.9 -10,916.1 -10,932.3 
			-10,948.5 -10,964.8 -10,981 -10,997.2 -10,1011 -8.4,1011 -1.5,1011 156.4,1002.7 		"/>
	</g>
	<g id="Layer_99">
		<polygon class="st45" points="1166.6,571.3 1434.9,171.4 972,281.9 		"/>
	</g>
	<g id="Layer_98">
		<polygon class="st4" points="1166.6,8.3 972,281.9 1434.9,171.4 		"/>
	</g>
	<g id="Layer_97">
		<polygon class="st46" points="1434.9,171.4 1167,570.7 1166.6,571.3 1167.1,571 1645.4,292.4 		"/>
	</g>
	<g id="Layer_96">
		<polygon class="st0" points="1167.9,-8 1167,3.7 1167,8.5 1434.3,171 1434.7,171 1308.6,-8 		"/>
	</g>
	<g id="Layer_95">
		<polygon class="st47" points="1645.4,292.4 1561.2,208.2 1434.9,171.4 1435,171.4 		"/>
	</g>
	<g id="Layer_94">
		<polygon class="st48" points="688,854.9 688,855.5 777.3,923.8 735.2,708 		"/>
	</g>
	<g id="Layer_93">
		<polygon class="st49" points="777.3,923.8 929.9,623.9 735.2,708 		"/>
	</g>
	<g id="Layer_92">
		<polygon class="st50" points="819.3,419 735.2,708 735.3,708 929.9,623.9 819.4,418.7 		"/>
	</g>
	<g id="Layer_91">
		<polygon class="st51" points="1645.4,292.4 1713.8,260.8 1619.1,160.9 		"/>
	</g>
	<g id="Layer_90">
		<polygon class="st52" points="1713.8,260.8 1930,82.8 1930,57.2 1619.1,160.9 		"/>
	</g>
	<g id="Layer_89">
		<polygon class="st53" points="1713.8,260.8 1645.4,292.4 1803.2,318.7 		"/>
	</g>
	<g id="Layer_88">
		<polygon class="st54" points="1713.8,260.8 1803.2,318.7 1930,121.1 1930,82.8 		"/>
	</g>
	<g id="Layer_87">
		<polygon class="st55" points="145.9,460.8 293,424 293.2,423.9 109.1,166.1 		"/>
	</g>
	<g id="Layer_86">
		<polygon class="st4" points="1814.2,-8 1930,25.1 1930,-8 		"/>
	</g>
	<g id="Layer_85">
		<polygon class="st56" points="819.4,418.7 972,281.9 914.1,50.4 		"/>
	</g>
	<g id="Layer_84">
		<polygon class="st4" points="903.5,44.5 819.4,-2.4 819,-2 819,418.6 819.4,418.7 914.1,50.4 		"/>
	</g>
	<g id="Layer_83">
		<polygon class="st4" points="972,281.9 1166.6,8.3 914.1,50.4 		"/>
	</g>
	<g id="Layer_82">
		<polygon class="st57" points="1440.2,934.3 1897.9,1029 1519.1,802.8 		"/>
	</g>
	<g id="Layer_81">
		<polygon class="st17" points="1519.1,802.8 1897.9,1029 1708.7,598 1708.3,597.7 1708.1,598 		"/>
	</g>
	<g id="Layer_80">
		<polygon class="st58" points="1930,982 1930,807.5 1708.7,598 1897.8,1029 		"/>
	</g>
	<g id="Layer_79">
		<polygon class="st59" points="1897.8,1028.9 1897.8,1029 1930,1036.5 1930,996.5 1930,982 		"/>
	</g>
	<g id="Layer_78">
		<polygon class="st33" points="251.2,29.2 398.4,187.1 398.7,187 639,-7.5 639,-8 411.4,-8 		"/>
	</g>
	<g id="Layer_77">
		<polygon class="st60" points="251.9,29 252.6,29 411,-7.5 411,-8 334.4,-8 		"/>
	</g>
	<g id="Layer_76">
		<polygon class="st61" points="639.1,-8 398.7,187 398.9,187 819,-2 819,-2.6 813.2,-8 		"/>
	</g>
	<g id="Layer_73">
		<polygon class="st62" points="914.1,50.4 916.2,-8 817.2,-8 819.4,-2.4 913.4,50 		"/>
	</g>
	<g id="Layer_72">
		<polygon class="st63" points="916.2,-8 914.1,50.4 916.4,50 1166.6,8.1 1127.2,-8 		"/>
	</g>
	<g id="Layer_71">
		<polygon class="st64" points="1165.9,8 1166.6,8 1164.8,-8 1127.2,-8 		"/>
	</g>
	<g id="Layer_70">
		<polygon class="st65" points="1440.2,934.3 1429.7,1171.1 1861.1,1186.8 		"/>
	</g>
	<g id="Layer_69">
		<polygon class="st66" points="1861.1,1186.8 1429.7,1171.1 1766.4,1349.9 		"/>
	</g>
	<g id="Layer_68">
		<polygon class="st17" points="1440.2,934.3 1861.1,1186.8 1897.9,1029 		"/>
	</g>
	<g id="Layer_67">
		<polygon class="st67" points="1897.9,1029 1861.1,1186.8 1930,1112.2 1930,1036.5 		"/>
	</g>
	<g id="Layer_66">
		<polygon class="st68" points="1930,1181.8 1930,1111.8 1860.7,1186.8 		"/>
	</g>
	<g id="Layer_64">
		<polygon class="st25" points="-10,1191.9 -10,1222.5 -10,1253.9 -10,1296 -10,1338.1 -10,1349 -10,1349 93.3,1323.6 		"/>
	</g>
	<g id="Layer_63">
		<polygon class="st54" points="93.3,1323.6 93.4,1323.3 -10,1088.3 -10,1166.2 -10,1191.9 		"/>
	</g>
	<g id="Layer_61">
		<polygon class="st69" points="366.8,882 314.3,1044.8 388,929 367,882 		"/>
	</g>
	<g id="Layer_60">
		<polygon class="st29" points="746,996 745.7,960.6 735,954.9 388,929 		"/>
	</g>
	<g id="Layer_59">
		<polygon class="st15" points="145.9,460.8 109.1,166.1 -10,338.5 -10,360.6 -10,402.7 -10,444.8 -10,457.3 		"/>
	</g>
	<g id="Layer_57">
		<polygon class="st70" points="109.1,166.1 109,166 -10,149.1 -10,240.2 -10,338.5 		"/>
	</g>
	<g id="Layer_56">
		<polygon class="st15" points="-1.4,818.5 145.9,460.8 -10,457.3 -10,477.4 -10,622.6 -10,767.8 -10,783.6 		"/>
	</g>
	<g id="Layer_54">
		<polygon class="st10" points="1025,1407.5 1025,1408.1 1076.1,1448 1329.9,1448 1245.6,1244.7 		"/>
	</g>
	<g id="Layer_53">
		<polygon class="st71" points="1329.9,1448 1439,1448 1439,1447.8 1245.6,1244.7 		"/>
	</g>
	<g id="Layer_52">
		<polygon class="st72" points="687.8,855.4 735.2,708 514.2,697.5 		"/>
	</g>
	<g id="Layer_51">
		<polygon class="st73" points="734.1,708 735.2,708 819.4,418.7 514.2,697.5 		"/>
	</g>
	<g id="Layer_50">
		<polygon class="st27" points="251.2,29.3 56.5,92.5 109.1,166.1 		"/>
	</g>
	<g id="Layer_49">
		<polygon class="st23" points="108.1,166 109.1,166.1 56.5,92.5 -10,98.8 -10,149.1 		"/>
	</g>
	<g id="Layer_48">
		<polygon class="st74" points="1229.8,660.7 887.8,1165.8 1392.9,865.9 		"/>
	</g>
	<g id="Layer_47">
		<polygon class="st23" points="1392.9,865.9 887.8,1165.8 1245.6,1244.7 		"/>
	</g>
	<g id="Layer_46">
		<polygon class="st75" points="1398.1,755.4 1229.8,660.7 1392.9,865.9 		"/>
	</g>
	<g id="Layer_45">
		<polygon class="st27" points="1392.9,865.9 1245.6,1244.7 1440.2,934.3 		"/>
	</g>
	<g id="Layer_44">
		<polygon class="st12" points="1398.1,755.4 1393,863 1392.9,865.9 1519,802.8 1519,802.7 		"/>
	</g>
	<g id="Layer_43">
		<polygon class="st29" points="1392.9,865.9 1440.2,934.3 1519,803 1518.6,803 		"/>
	</g>
	<g id="Layer_41">
		<polygon class="st4" points="146,460.8 146,460.8 361.6,623.9 293.2,423.9 293,424 		"/>
	</g>
	<g id="Layer_40">
		<polygon class="st73" points="366.9,487.1 293.2,423.9 361.6,623.9 		"/>
	</g>
	<g id="Layer_39">
		<polygon class="st41" points="366.9,487.1 361.6,623.9 514.2,697.5 		"/>
	</g>
	<g id="Layer_38">
		<polygon class="st39" points="362,624.8 366.9,881.7 424.8,787 		"/>
	</g>
	<g id="Layer_37">
		<polygon class="st4" points="362,624.8 424.8,787 514.2,697.5 514,697.4 362,624 		"/>
	</g>
	<g id="Layer_36">
		<polygon class="st55" points="145.8,461 -1,817.6 -1,818.3 361.6,623.9 146.2,461 		"/>
	</g>
	<g id="Layer_35">
		<polygon class="st12" points="361.6,623.9 -1,818.3 -1,818.6 366.9,881.7 362,624 		"/>
	</g>
	<g id="Layer_34">
		<polygon class="st76" points="1493.5,171 1509.1,171 1524.6,171 1539.8,171 1361.1,-8 1309,-8 1309,-7 1434.7,171 1446.8,171 
			1462.4,171 1478,171 		"/>
	</g>
	<g id="Layer_33">
		<polygon class="st23" points="1361.1,-8 1539.8,171 1540.4,171.4 1619.1,160.9 1407.2,-8 		"/>
	</g>
	<g id="Layer_32">
		<polygon class="st77" points="1561,208 1561,207.8 1540.2,171 1434.3,171 1434.9,171.4 1560.4,208 		"/>
	</g>
	<g id="Layer_31">
		<polygon class="st78" points="1540.2,171.4 1561.1,208 1561.5,208 1619,161 1619.1,160.9 		"/>
	</g>
	<g id="Layer_30">
		<polygon class="st56" points="367,881.9 387.9,929 388,929 487.9,823.8 367,881.6 		"/>
	</g>
	<g id="Layer_29">
		<polygon class="st79" points="424.8,787 366.9,881.7 487.9,823.8 		"/>
	</g>
	<g id="Layer_28">
		<polygon class="st41" points="388,929 388,929 734.6,955 487.9,823.8 		"/>
	</g>
	<g id="Layer_26">
		<polygon class="st80" points="514.2,697.6 514.2,697.5 424.8,787 487.9,824 		"/>
	</g>
	<g id="Layer_25">
		<polygon class="st81" points="514.2,697.5 487.9,823.8 687.8,855.4 		"/>
	</g>
	<g id="Layer_24">
		<polygon class="st56" points="734.6,955 735,955 735,954.9 687.8,855.4 487.9,823.8 		"/>
	</g>
	<g id="Layer_23">
		<polygon class="st37" points="251,29.4 251.2,29.2 202.7,-8 54,-8 56.5,92 58,92 		"/>
	</g>
	<g id="Layer_22">
		<polygon class="st82" points="203,-7.4 251.2,29.2 251.9,29 334,-7.5 334,-8 203,-8 		"/>
	</g>
	<g id="Layer_21">
		<polygon class="st83" points="1930,369.4 1930,278 1929.3,278 1803.2,318.7 		"/>
	</g>
	<g id="Layer_20">
		<polygon class="st36" points="1803.2,318.7 1930,277.8 1930,264.4 		"/>
	</g>
	<g id="Layer_19">
		<polygon class="st19" points="314,1045.2 93.3,1323.6 461.6,1265.8 314.3,1044.8 314,1044.7 		"/>
	</g>
	<g id="Layer_18">
		<polygon class="st36" points="461.6,1265.8 93.3,1323.6 246.1,1448 427.6,1448 		"/>
	</g>
	<g id="Layer_17">
		<polygon class="st84" points="314.3,1044.8 461.6,1265.8 388,929 		"/>
	</g>
	<g id="Layer_16">
		<polygon class="st85" points="461.6,1265.8 744.5,999.2 746,996 388,929 388,929.2 		"/>
	</g>
	<g id="Layer_15">
		<polygon class="st86" points="461.6,1265.8 428,1446 428,1448 492,1448 		"/>
	</g>
	<g id="Layer_14">
		<polygon class="st87" points="492,1448 507.9,1448 545.8,1292.1 461.6,1265.8 		"/>
	</g>
	<g id="Layer_13">
		<polygon class="st84" points="461.6,1265.8 545.8,1292.1 545.8,1292 744.5,999.2 		"/>
	</g>
	<g id="Layer_12">
		<polygon class="st38" points="366.8,487 366.9,487 430,339.8 293.2,423.9 		"/>
	</g>
	<g id="Layer_11">
		<polygon class="st46" points="430,339.8 398.5,187.2 293.2,423.9 		"/>
	</g>
	<g id="Layer_10">
		<polygon class="st4" points="367,486.9 367,487.2 514.2,697.5 514,696.6 430,339.8 		"/>
	</g>
	<g id="Layer_9">
		<polygon class="st12" points="398.5,187.2 430,339.8 819,418.6 819,418.5 		"/>
	</g>
	<g id="Layer_8">
		<polygon class="st9" points="430,339.8 514.2,697.5 819.4,418.7 		"/>
	</g>
	<g id="Layer_7">
		<polygon class="st88" points="56,92.5 56,92.4 -10,87.5 -10,98.8 		"/>
	</g>
	<g id="Layer_6">
		<polygon class="st89" points="48.3,92.3 58.1,92.8 54,-8 -10,-8 -10,87.5 		"/>
	</g>
</g>
</svg>
