<svg xmlns="http://www.w3.org/2000/svg" width="1920" height="1344" viewBox="0 0 1920 1344"><defs><style>.a{fill:#4f4f4f;}.b{fill:#005470;}.c{opacity:0.1;}.d,.e,.f,.g,.h,.i,.j{fill:#fff;}.e{opacity:0.2;}.f{opacity:0.4;}.g{opacity:0.15;}.h{opacity:0.25;}.i{opacity:0.5;}.j{opacity:0.3;}</style></defs><title>apc340_storybook_splash</title><path class="a" d="M383.95215,1133.28125H372.13672l-3.10889,9.0166h-4.53076l11.28223-31.35937h4.61963l11.28222,31.35937H387.106Zm-5.90772-18.03418s-.71045,2.84277-1.24365,4.44141l-3.50879,9.95019h9.50537l-3.46484-9.95019c-.53272-1.59864-1.19922-4.44141-1.19922-4.44141Z"/><path class="a" d="M395.1416,1110.93848h4.3086v24.47461c0,2.709,1.06591,3.19824,2.39843,3.19824a6.78741,6.78741,0,0,0,.75537-.04492v3.82031a12.10494,12.10494,0,0,1-1.42138.08887c-2.44336,0-6.041-.666-6.041-6.30762Z"/><path class="a" d="M404.55664,1119.82227h4.5752l4.66406,15.76855c.35547,1.1543.5332,2.39844.57764,2.39844h.08837a23.33751,23.33751,0,0,1,.57764-2.39844l4.88623-15.72461h3.95313l4.8413,15.72461c.35547,1.1543.62208,2.39844.62208,2.39844h.08886a18.06086,18.06086,0,0,1,.53321-2.39844l4.708-15.76855h4.53076l-7.24023,22.47558h-4.75244l-4.66406-14.43555c-.35547-1.15527-.62207-2.44335-.62207-2.44335h-.08887s-.26611,1.28808-.62158,2.44335l-4.61963,14.43555h-4.79736Z"/><path class="a" d="M455.05566,1128.26172h.97754v-.39942c0-3.6875-2.08789-4.93066-4.93066-4.93066a11.39755,11.39755,0,0,0-6.2627,2.17676l-1.77685-3.1543a14.1002,14.1002,0,0,1,8.395-2.665c5.68554,0,8.88379,3.10938,8.88379,8.79492v14.21387h-3.998V1140.166a16.88175,16.88175,0,0,1,.08887-1.77735h-.08887a7.77415,7.77415,0,0,1-7.19531,4.44238c-3.86475,0-7.64014-2.35449-7.64014-6.84082C441.5083,1128.57227,451.28027,1128.26172,455.05566,1128.26172Zm-4.97461,11.10449c3.64209,0,5.99659-3.82031,5.99659-7.15137v-.71093H454.9668c-3.24219,0-9.10547.22265-9.10547,4.26464C445.86133,1137.58984,447.28271,1139.36621,450.08105,1139.36621Z"/><path class="a" d="M465.13574,1146.96191a5.01329,5.01329,0,0,0,2.62061.93262c1.73242,0,3.19824-1.24414,4.042-3.28711l1.11035-2.57617-9.4165-22.209H468.334l5.64112,14.70214c.44385,1.15528.84375,2.71.84375,2.71h.08886s.35547-1.51075.75489-2.665l5.46386-14.74707H485.79l-10.52686,26.51757a7.725,7.725,0,0,1-7.28466,5.28614,7.86454,7.86454,0,0,1-4.353-1.377Z"/><path class="a" d="M489.6958,1136.47949a9.64615,9.64615,0,0,0,6.44092,2.62012c1.86572,0,3.731-.97754,3.731-2.79785,0-4.13086-11.54883-3.28711-11.54883-10.61621,0-4.08692,3.64258-6.39649,8.1289-6.39649,4.93018,0,7.24024,2.48731,7.24024,2.48731l-1.73242,3.24316a8.22458,8.22458,0,0,0-5.55225-1.999c-1.86572,0-3.687.7998-3.687,2.7539,0,4.042,11.54883,3.15332,11.54883,10.52735,0,3.73047-3.19825,6.52929-8.12842,6.52929a12.08348,12.08348,0,0,1-8.52832-3.2871Z"/><path class="a" d="M520.74023,1110.93848h4.3086v11.5039c0,1.06641-.08887,1.86621-.08887,1.86621h.08887a9.07336,9.07336,0,0,1,8.30615-5.01953c5.28564,0,7.72852,2.8877,7.72852,8.61719v14.3916h-4.3086v-13.41406c0-3.1543-.666-5.6416-4.26416-5.6416a7.4403,7.4403,0,0,0-7.10693,5.55273,10.53225,10.53225,0,0,0-.355,2.97559v10.52734h-4.3086Z"/><path class="a" d="M559.24707,1128.26172h.97754v-.39942c0-3.6875-2.08789-4.93066-4.93066-4.93066a11.39755,11.39755,0,0,0-6.2627,2.17676l-1.77686-3.1543a14.10023,14.10023,0,0,1,8.395-2.665c5.68555,0,8.88379,3.10938,8.88379,8.79492v14.21387h-3.998V1140.166a16.88363,16.88363,0,0,1,.08886-1.77735h-.08886a7.77416,7.77416,0,0,1-7.19532,4.44238c-3.86474,0-7.64013-2.35449-7.64013-6.84082C545.69971,1128.57227,555.47168,1128.26172,559.24707,1128.26172Zm-4.97461,11.10449c3.64209,0,5.99658-3.82031,5.99658-7.15137v-.71093H559.1582c-3.24218,0-9.10547.22265-9.10547,4.26464C550.05273,1137.58984,551.47412,1139.36621,554.27246,1139.36621Z"/><path class="a" d="M567.90576,1119.82227h4.5752l5.46338,15.1914c.44384,1.24317.71045,3.06445.75488,3.06445h.08887c.04443,0,.35546-1.82128.7998-3.06445l5.46338-15.1914H589.582l-8.30664,22.47558h-4.97461Z"/><path class="a" d="M602.94922,1119.28906c6.35156,0,9.72754,4.708,9.72754,10.52735,0,.57714-.1333,1.86523-.1333,1.86523H596.15332a7.34511,7.34511,0,0,0,7.72852,7.418,10.71663,10.71663,0,0,0,6.66259-2.62012l1.77686,3.15332a13.37791,13.37791,0,0,1-8.70606,3.19824,11.44546,11.44546,0,0,1-11.9038-11.77148C591.71143,1123.9082,596.55273,1119.28906,602.94922,1119.28906Zm5.33008,9.15039c-.1333-3.86425-2.53174-5.73047-5.41895-5.73047a6.4407,6.4407,0,0,0-6.57422,5.73047Z"/><path class="a" d="M641.05469,1128.26172h.97754v-.39942c0-3.6875-2.08789-4.93066-4.93067-4.93066a11.39754,11.39754,0,0,0-6.26269,2.17676l-1.77686-3.1543a14.10023,14.10023,0,0,1,8.395-2.665c5.68555,0,8.88379,3.10938,8.88379,8.79492v14.21387h-3.99805V1140.166a16.88175,16.88175,0,0,1,.08887-1.77735h-.08887a7.77415,7.77415,0,0,1-7.19531,4.44238c-3.86475,0-7.64014-2.35449-7.64014-6.84082C627.50732,1128.57227,637.2793,1128.26172,641.05469,1128.26172Zm-4.97461,11.10449c3.64209,0,5.99658-3.82031,5.99658-7.15137v-.71093h-1.11084c-3.24219,0-9.10547.22265-9.10547,4.26464C631.86035,1137.58984,633.28174,1139.36621,636.08008,1139.36621Z"/><path class="a" d="M663.30322,1138.47754h6.9292v-20.25488c0-.97657.04444-1.95411.04444-1.95411H670.188a7.75938,7.75938,0,0,1-1.51026,1.82129l-2.93115,2.88672-2.66553-2.7539,7.50684-7.28418h3.90869v27.53906h6.84082v3.82031H663.30322Z"/><path class="a" d="M685.332,1126.57422c0-9.01758,2.70947-16.16895,11.06006-16.16895,8.395,0,11.10449,7.15137,11.10449,16.16895,0,9.06055-2.70947,16.25683-11.10449,16.25683C688.0415,1142.83105,685.332,1135.63477,685.332,1126.57422Zm17.67871,0c0-6.79688-1.46582-12.127-6.61865-12.127-5.10791,0-6.57373,5.33007-6.57373,12.127,0,6.83984,1.46582,12.21484,6.57373,12.21484C701.54492,1138.78906,703.01074,1133.41406,703.01074,1126.57422Z"/><path class="a" d="M713.09033,1126.57422c0-9.01758,2.70947-16.16895,11.06006-16.16895,8.395,0,11.10449,7.15137,11.10449,16.16895,0,9.06055-2.70947,16.25683-11.10449,16.25683C715.7998,1142.83105,713.09033,1135.63477,713.09033,1126.57422Zm17.67871,0c0-6.79688-1.46582-12.127-6.61865-12.127-5.10791,0-6.57373,5.33007-6.57373,12.127,0,6.83984,1.46582,12.21484,6.57373,12.21484C729.30322,1138.78906,730.769,1133.41406,730.769,1126.57422Z"/><path class="a" d="M740.18164,1116.97949a6.73132,6.73132,0,1,1,6.70752,6.57422A6.646,6.646,0,0,1,740.18164,1116.97949Zm24.65234-6.041h4.1753l-23.98584,31.35937h-4.1753Zm-14.6582,6.041a3.28716,3.28716,0,1,0-6.57373,0,3.28687,3.28687,0,1,0,6.57373,0Zm12.83692,12.70313a6.57655,6.57655,0,1,1,0,13.14843,6.57654,6.57654,0,1,1,0-13.14843Zm0,9.86133a3.25207,3.25207,0,0,0,3.2871-3.28711,3.28716,3.28716,0,1,0-6.57373,0A3.225,3.225,0,0,0,763.0127,1139.544Z"/><path class="a" d="M797.11914,1119.28906c6.70752,0,12.12647,4.93067,12.12647,11.72656a12.13031,12.13031,0,0,1-24.25245,0C784.99316,1124.21973,790.41211,1119.28906,797.11914,1119.28906Zm0,19.81055a8.0458,8.0458,0,1,0-7.72852-8.084A7.76486,7.76486,0,0,0,797.11914,1139.09961Z"/><path class="a" d="M814.3501,1119.82227h3.95312v1.91015a15.782,15.782,0,0,1-.08886,1.64356h.08886s1.90967-4.08692,7.55127-4.08692c6.04053,0,9.86084,4.79688,9.86084,11.77051,0,7.15137-4.30859,11.77148-10.17187,11.77148a7.82081,7.82081,0,0,1-6.88477-3.68652h-.08887a19.55772,19.55772,0,0,1,.08887,1.9541v10.083H814.3501Zm10.52685,19.32226c3.55371,0,6.48535-2.93164,6.48535-8.04,0-4.88574-2.62109-8.04-6.352-8.04-3.37548,0-6.48486,2.3545-6.48486,8.084C818.52539,1135.14648,820.74609,1139.14453,824.877,1139.14453Z"/><path class="a" d="M852.72363,1128.26172h.97754v-.39942c0-3.6875-2.08789-4.93066-4.93066-4.93066a11.39755,11.39755,0,0,0-6.2627,2.17676l-1.77685-3.1543a14.1002,14.1002,0,0,1,8.395-2.665c5.68554,0,8.88379,3.10938,8.88379,8.79492v14.21387h-3.99805V1140.166a16.88175,16.88175,0,0,1,.08887-1.77735h-.08887a7.77415,7.77415,0,0,1-7.19531,4.44238c-3.86475,0-7.64014-2.35449-7.64014-6.84082C839.17627,1128.57227,848.94824,1128.26172,852.72363,1128.26172Zm-4.97461,11.10449c3.64209,0,5.99659-3.82031,5.99659-7.15137v-.71093h-1.11084c-3.24219,0-9.10547.22265-9.10547,4.26464C843.5293,1137.58984,844.95068,1139.36621,847.749,1139.36621Z"/><path class="a" d="M874.88525,1119.28906a11.38078,11.38078,0,0,1,8.43946,3.28711l-2.043,3.02051a9.10459,9.10459,0,0,0-6.21875-2.57617,7.65539,7.65539,0,0,0-7.81738,7.99511,7.78431,7.78431,0,0,0,7.95068,8.084,10.18357,10.18357,0,0,0,6.9292-3.02051l1.73242,3.1543a12.31033,12.31033,0,0,1-8.97266,3.59765c-7.0625,0-12.03711-5.01953-12.03711-11.77148C862.84814,1124.39746,867.82275,1119.28906,874.88525,1119.28906Z"/><path class="a" d="M888.69678,1110.93848h4.353v4.39746h-4.353Zm.04443,8.88379h4.30859v22.47558h-4.30859Z"/><path class="a" d="M900.73242,1123.59766h-2.93164v-3.46485h3.06445v-6.48437H905.041v6.48437H910.46v3.46485H905.041v9.99414c0,4.48632,3.15332,5.06347,4.79687,5.06347a5.18,5.18,0,0,0,1.02149-.08886v3.82031a11.78919,11.78919,0,0,1-1.50977.08887c-2.8877,0-8.61719-.88868-8.61719-8.39551Z"/><path class="a" d="M914.05469,1146.96191a5.01066,5.01066,0,0,0,2.62011.93262c1.73243,0,3.19825-1.24414,4.043-3.28711l1.11035-2.57617-9.417-22.209h4.8418l5.64062,14.70214c.44434,1.15528.84375,2.71.84375,2.71h.08887s.35547-1.51075.75586-2.665l5.46289-14.74707H934.709l-10.52734,26.51757a7.72491,7.72491,0,0,1-7.28418,5.28614,7.8651,7.8651,0,0,1-4.35351-1.377Z"/><path class="a" d="M949.7627,1110.93848h4.30859v10.26074c0,1.11035-.08887,1.91016-.08887,1.91016h.08887a7.93759,7.93759,0,0,1,7.19531-3.82032c6.041,0,9.86133,4.79688,9.86133,11.77051,0,7.15137-4.30859,11.77148-10.2168,11.77148a8.08172,8.08172,0,0,1-7.0625-3.86425h-.08886a15.05526,15.05526,0,0,1,.08886,1.6875v1.64355H949.7627ZM960.29,1139.14453c3.55273,0,6.48437-2.93164,6.48437-8.04,0-4.88574-2.62011-8.04-6.35156-8.04-3.376,0-6.48535,2.3545-6.48535,8.084C953.9375,1135.14648,956.02539,1139.14453,960.29,1139.14453Z"/><path class="a" d="M988.13672,1128.26172h.97656v-.39942c0-3.6875-2.08691-4.93066-4.92969-4.93066a11.40056,11.40056,0,0,0-6.26367,2.17676l-1.77637-3.1543a14.09783,14.09783,0,0,1,8.39454-2.665c5.68554,0,8.88379,3.10938,8.88379,8.79492v14.21387H989.4248V1140.166a16.88175,16.88175,0,0,1,.08887-1.77735h-.08887a7.7755,7.7755,0,0,1-7.19628,4.44238c-3.86426,0-7.63965-2.35449-7.63965-6.84082C974.58887,1128.57227,984.36133,1128.26172,988.13672,1128.26172Zm-4.97559,11.10449c3.64258,0,5.99707-3.82031,5.99707-7.15137v-.71093h-1.11035c-3.24316,0-9.10644.22265-9.10644,4.26464C978.94141,1137.58984,980.36328,1139.36621,983.16113,1139.36621Z"/><path class="a" d="M1000.126,1136.47949a9.64268,9.64268,0,0,0,6.44043,2.62012c1.86523,0,3.73144-.97754,3.73144-2.79785,0-4.13086-11.54883-3.28711-11.54883-10.61621,0-4.08692,3.6416-6.39649,8.12793-6.39649,4.93067,0,7.24024,2.48731,7.24024,2.48731l-1.73242,3.24316a8.221,8.221,0,0,0-5.55176-1.999c-1.86524,0-3.68653.7998-3.68653,2.7539,0,4.042,11.54883,3.15332,11.54883,10.52735,0,3.73047-3.19824,6.52929-8.1289,6.52929a12.08345,12.08345,0,0,1-8.52832-3.2871Z"/><path class="a" d="M1029.43945,1119.28906c6.35254,0,9.72754,4.708,9.72754,10.52735,0,.57714-.13281,1.86523-.13281,1.86523h-16.39063a7.34617,7.34617,0,0,0,7.7295,7.418,10.71454,10.71454,0,0,0,6.66211-2.62012l1.77734,3.15332a13.381,13.381,0,0,1-8.70605,3.19824,11.44588,11.44588,0,0,1-11.9043-11.77148C1018.20215,1123.9082,1023.044,1119.28906,1029.43945,1119.28906Zm5.33106,9.15039c-.13379-3.86425-2.53223-5.73047-5.41992-5.73047a6.44044,6.44044,0,0,0-6.57325,5.73047Z"/><path class="a" d="M1066.25684,1119.28906a11.38207,11.38207,0,0,1,8.43945,3.28711l-2.04395,3.02051a9.10221,9.10221,0,0,0-6.21777-2.57617,7.65589,7.65589,0,0,0-7.81836,7.99511,7.78471,7.78471,0,0,0,7.95117,8.084,10.184,10.184,0,0,0,6.92969-3.02051l1.73145,3.1543a12.30673,12.30673,0,0,1-8.97168,3.59765c-7.0625,0-12.03809-5.01953-12.03809-11.77148C1054.21875,1124.39746,1059.19434,1119.28906,1066.25684,1119.28906Z"/><path class="a" d="M1090.59473,1119.28906c6.707,0,12.126,4.93067,12.126,11.72656a12.13006,12.13006,0,0,1-24.252,0C1078.46875,1124.21973,1083.8877,1119.28906,1090.59473,1119.28906Zm0,19.81055a8.0458,8.0458,0,1,0-7.72852-8.084A7.76417,7.76417,0,0,0,1090.59473,1139.09961Z"/><path class="a" d="M1107.55957,1110.93848h4.30859v24.47461c0,2.709,1.06641,3.19824,2.39844,3.19824a6.784,6.784,0,0,0,.75488-.04492v3.82031a12.091,12.091,0,0,1-1.42089.08887c-2.44336,0-6.041-.666-6.041-6.30762Z"/><path class="a" d="M1130.07715,1119.28906c6.707,0,12.126,4.93067,12.126,11.72656a12.13006,12.13006,0,0,1-24.25195,0C1117.95117,1124.21973,1123.37012,1119.28906,1130.07715,1119.28906Zm0,19.81055a8.0458,8.0458,0,1,0-7.72852-8.084A7.76417,7.76417,0,0,0,1130.07715,1139.09961Z"/><path class="a" d="M1147.30859,1119.82227h4.17481v3.90918a16.10421,16.10421,0,0,1-.08887,1.6875h.08887c1.02148-3.28711,3.64258-5.86329,7.10742-5.86329a7.646,7.646,0,0,1,1.11035.08887v4.26367a6.22417,6.22417,0,0,0-1.24414-.13281c-2.75391,0-5.28515,1.9541-6.30664,5.28613a13.63708,13.63708,0,0,0-.5332,4.042v9.19433h-4.3086Z"/><path class="a" d="M1173.46777,1109.251h3.82032l-11.28223,34.91211h-3.82031Z"/><path class="a" d="M1181.90527,1110.93848h4.3086v10.26074c0,1.11035-.08887,1.91016-.08887,1.91016h.08887a7.93757,7.93757,0,0,1,7.19531-3.82032c6.041,0,9.86133,4.79688,9.86133,11.77051,0,7.15137-4.3086,11.77148-10.2168,11.77148a8.08172,8.08172,0,0,1-7.0625-3.86425h-.08887a15.05358,15.05358,0,0,1,.08887,1.6875v1.64355h-4.08594Zm10.52735,28.20605c3.55273,0,6.48437-2.93164,6.48437-8.04,0-4.88574-2.62011-8.04-6.35156-8.04-3.376,0-6.48535,2.3545-6.48535,8.084C1186.08008,1135.14648,1188.168,1139.14453,1192.43262,1139.14453Z"/><path class="a" d="M1220.2793,1128.26172h.97656v-.39942c0-3.6875-2.08691-4.93066-4.92969-4.93066a11.40056,11.40056,0,0,0-6.26367,2.17676l-1.77637-3.1543a14.09781,14.09781,0,0,1,8.39453-2.665c5.68555,0,8.88379,3.10938,8.88379,8.79492v14.21387h-3.99707V1140.166a16.88175,16.88175,0,0,1,.08887-1.77735h-.08887a7.77552,7.77552,0,0,1-7.19629,4.44238c-3.86425,0-7.63964-2.35449-7.63964-6.84082C1206.73145,1128.57227,1216.50391,1128.26172,1220.2793,1128.26172Zm-4.97559,11.10449c3.64258,0,5.99707-3.82031,5.99707-7.15137v-.71093h-1.11035c-3.24316,0-9.10645.22265-9.10645,4.26464C1211.084,1137.58984,1212.50586,1139.36621,1215.30371,1139.36621Z"/><path class="a" d="M1242.44141,1119.28906a11.38207,11.38207,0,0,1,8.43945,3.28711l-2.04395,3.02051a9.10221,9.10221,0,0,0-6.21777-2.57617,7.65589,7.65589,0,0,0-7.81836,7.99511,7.78471,7.78471,0,0,0,7.95117,8.084,10.184,10.184,0,0,0,6.92969-3.02051l1.73145,3.1543a12.30673,12.30673,0,0,1-8.97168,3.59765c-7.0625,0-12.03809-5.01953-12.03809-11.77148C1230.40332,1124.39746,1235.37891,1119.28906,1242.44141,1119.28906Z"/><path class="a" d="M1256.29688,1110.93848h4.30859v17.1455h3.15332l6.12988-8.26171h4.88574l-7.46191,9.90527v.08887l8.30664,12.48144h-5.01953l-6.752-10.57129h-3.24219v10.57129h-4.30859Z"/><path class="a" d="M1287.51953,1147.89453c3.90918,0,7.10645-1.73242,7.10645-6.30762v-1.64355c0-.71.04492-1.4209.04492-1.4209h-.08887a7.13241,7.13241,0,0,1-6.66308,3.50879c-6.2627,0-10.03809-5.01953-10.03809-11.50391,0-6.4414,3.59766-11.23828,9.81641-11.23828,5.41894,0,7.0625,3.33106,7.0625,3.33106h.08886a5.51392,5.51392,0,0,1-.04492-.71v-2.08789h4.13086v21.543c0,7.418-5.64062,10.26075-11.32617,10.26075a17.51741,17.51741,0,0,1-7.68457-1.86621l1.42187-3.375A14.47907,14.47907,0,0,0,1287.51953,1147.89453Zm7.19531-17.32324c0-5.86328-2.84277-7.55078-6.35156-7.55078-3.9082,0-6.12988,2.84277-6.12988,7.418,0,4.66406,2.4873,7.86132,6.5293,7.86132C1291.87207,1138.2998,1294.71484,1136.43457,1294.71484,1130.57129Z"/><path class="a" d="M1305.68262,1119.82227h4.1748v3.90918a16.10421,16.10421,0,0,1-.08887,1.6875h.08887c1.02149-3.28711,3.64258-5.86329,7.10742-5.86329a7.64619,7.64619,0,0,1,1.11036.08887v4.26367a6.22421,6.22421,0,0,0-1.24415-.13281c-2.7539,0-5.28515,1.9541-6.30664,5.28613a13.63708,13.63708,0,0,0-.5332,4.042v9.19433h-4.30859Z"/><path class="a" d="M1332.6875,1119.28906c6.707,0,12.126,4.93067,12.126,11.72656a12.13006,12.13006,0,0,1-24.252,0C1320.56152,1124.21973,1325.98047,1119.28906,1332.6875,1119.28906Zm0,19.81055a8.0458,8.0458,0,1,0-7.72852-8.084A7.76418,7.76418,0,0,0,1332.6875,1139.09961Z"/><path class="a" d="M1349.60645,1119.82227h4.30859v13.41406c0,3.10937.62207,5.59668,4.21973,5.59668,4.57519,0,7.28515-4.042,7.28515-8.4834v-10.52734h4.3086v22.47558h-4.17579v-2.97558a14.69615,14.69615,0,0,1,.08887-1.64356h-.08887a9.06408,9.06408,0,0,1-8.26171,5.15234c-5.06348,0-7.68457-2.665-7.68457-8.61718Z"/><path class="a" d="M1376.47656,1119.82227h4.17481v2.97558a15.75639,15.75639,0,0,1-.08887,1.64356h.08887a9.15032,9.15032,0,0,1,8.43945-5.15235c5.28613,0,7.72949,2.8877,7.72949,8.61719v14.3916h-4.30859v-13.41406c0-3.1543-.667-5.6416-4.26465-5.6416a7.36033,7.36033,0,0,0-7.10645,5.50781,10.63875,10.63875,0,0,0-.35546,3.02051v10.52734h-4.3086Z"/><path class="a" d="M1411.96289,1119.28906c5.19629,0,6.92871,3.55371,6.92871,3.55371h.08887a12.71492,12.71492,0,0,1-.08887-1.51074v-10.39355h4.3086v31.35937h-4.08594V1140.166c0-.88868.04394-1.51075.04394-1.51075h-.08886a7.87254,7.87254,0,0,1-7.373,4.17578c-6.08594,0-9.90527-4.79785-9.90527-11.77148C1401.791,1123.9082,1406.01074,1119.28906,1411.96289,1119.28906Zm.57715,19.81055c3.33105,0,6.48535-2.35449,6.48535-8.084,0-3.998-2.08789-7.99511-6.35254-7.99511-3.55273,0-6.48437,2.93164-6.48437,8.03906C1406.18848,1135.94629,1408.80859,1139.09961,1412.54,1139.09961Z"/><path class="a" d="M1451.80078,1119.28906a11.382,11.382,0,0,1,8.43945,3.28711l-2.04394,3.02051a9.10224,9.10224,0,0,0-6.21777-2.57617,7.65589,7.65589,0,0,0-7.81836,7.99511,7.78471,7.78471,0,0,0,7.95117,8.084,10.184,10.184,0,0,0,6.92969-3.02051l1.73144,3.1543a12.30673,12.30673,0,0,1-8.97168,3.59765c-7.0625,0-12.03808-5.01953-12.03808-11.77148C1439.7627,1124.39746,1444.73828,1119.28906,1451.80078,1119.28906Z"/><path class="a" d="M1476.13867,1119.28906c6.707,0,12.126,4.93067,12.126,11.72656a12.13006,12.13006,0,0,1-24.252,0C1464.0127,1124.21973,1469.43164,1119.28906,1476.13867,1119.28906Zm0,19.81055a8.0458,8.0458,0,1,0-7.72851-8.084A7.76418,7.76418,0,0,0,1476.13867,1139.09961Z"/><path class="a" d="M1493.10254,1110.93848h4.30859v24.47461c0,2.709,1.06641,3.19824,2.39844,3.19824a6.78426,6.78426,0,0,0,.75488-.04492v3.82031a12.091,12.091,0,0,1-1.4209.08887c-2.44335,0-6.041-.666-6.041-6.30762Z"/><path class="a" d="M1515.62109,1119.28906c6.707,0,12.126,4.93067,12.126,11.72656a12.13006,12.13006,0,0,1-24.25195,0C1503.49512,1124.21973,1508.91406,1119.28906,1515.62109,1119.28906Zm0,19.81055a8.0458,8.0458,0,1,0-7.72851-8.084A7.76418,7.76418,0,0,0,1515.62109,1139.09961Z"/><path class="a" d="M1532.85254,1119.82227h4.1748v3.90918a16.106,16.106,0,0,1-.08886,1.6875h.08886c1.02149-3.28711,3.64258-5.86329,7.10743-5.86329a7.64614,7.64614,0,0,1,1.11035.08887v4.26367a6.22417,6.22417,0,0,0-1.24414-.13281c-2.75391,0-5.28516,1.9541-6.30664,5.28613a13.63708,13.63708,0,0,0-.53321,4.042v9.19433h-4.30859Z"/><path class="a" d="M1547.95312,1137.72266h4.53028v4.57519h-4.53028Z"/><polyline class="b" points="1934.386 -26.012 -14.386 -26.012 -14.386 1370.012 1934.386 1370.012 1934.386 -26.012"/><g class="c"><polyline class="d" points="1934.386 -26.012 -14.386 -26.012 -14.386 1370.012 1934.386 1370.012 1934.386 -26.012"/></g><path class="e" d="M2006.36061,276.16942a28.62588,28.62588,0,0,0-4.88579.426,37.5324,37.5324,0,0,0-52.13-33.9273,46.39778,46.39778,0,0,0-79.684-17.4525,28.21289,28.21289,0,0,0-33.74817,15.31855,46.42265,46.42265,0,0,0-85.65629,3.9163,40.595,40.595,0,0,0-41.116,5.963,28.50224,28.50224,0,0,0-44.01991-28.175,42.52011,42.52011,0,0,0-77.40786,12.71188,40.56921,40.56921,0,0,0-33.26753,20.435,47.98768,47.98768,0,0,0-45.14745-11.886,42.527,42.527,0,0,0-83.34024-.71113,40.5697,40.5697,0,0,0-51.255,38.15063c-.60714-.03848-1.21738-.06494-1.83442-.06494a28.50689,28.50689,0,0,0,0,57.01378h14.8986c.15154.002.30124.0116.45334.0116h27.384a28.41036,28.41036,0,0,0,41.35482,1.04915,59.70048,59.70048,0,0,0,83.78523,5.69667,46.57085,46.57085,0,0,0,44.67062-.9518,48.37963,48.37963,0,0,0,54.19587,8.26668,56.50494,56.50494,0,0,0,85.40444.75712,26.88851,26.88851,0,0,0,39.13965-.993h2.34024a48.45708,48.45708,0,0,0,54.89249-13.836h14.39908a46.62046,46.62046,0,0,0,45.41288-.57177,48.40716,48.40716,0,0,0,69.42273-3.28185,23.0368,23.0368,0,0,0,33.533-.85036h22.20571a28.50732,28.50732,0,0,0,0-57.01463Z"/><path class="f" d="M1355.58952,68.531c-.82719,0-1.64655.03528-2.46074.0873a54.45821,54.45821,0,0,0-74.79468-49.19579c-.21593-.01568-.43025-.03813-.64743-.04935A62.31551,62.31551,0,0,0,1167.6552,5.856,57.68888,57.68888,0,0,0,1155.251,24.91a45.575,45.575,0,0,0-29.47957.28683,54.4265,54.4265,0,0,0-49.84643-4.74225c-.21593-.01568-.43025-.03813-.64743-.04935A62.281,62.281,0,0,0,968.8004,2.20553a37.26744,37.26744,0,0,0-34.43632-6.99669A61.2881,61.2881,0,0,0,829.10729,18.26236a49.57741,49.57741,0,0,0-68.85964,44.81538,37.65354,37.65354,0,1,0-6.454,74.74942h29.332a30.43016,30.43016,0,0,0,44.295,1.1233,63.94181,63.94181,0,0,0,91.702,4.335,61.51766,61.51766,0,0,0,59.04695,1.237c1.10477,1.01587,1.71907,1.58046,1.71907,1.58046a64.99626,64.99626,0,0,0,98.4648,1.14147,31.12571,31.12571,0,0,0,4.2557,3.56587,70.84608,70.84608,0,0,0,99.05826-5.73942h.6305a64.99641,64.99641,0,0,0,98.46463,1.14147,30.92659,30.92659,0,0,0,45.01759-1.14218h29.80933a38.26952,38.26952,0,1,0,0-76.539Z"/><path class="f" d="M201.90948,90.84373c-.92493,0-1.8409.03925-2.75109.0974A60.87984,60.87984,0,0,0,115.5446,35.94462c-.24139-.01733-.481-.04262-.72377-.05517A69.66309,69.66309,0,0,0-8.18457,20.77867,64.489,64.489,0,0,0-22.05135,42.07935a50.80012,50.80012,0,0,0-15.99529-2.5806A50.87011,50.87011,0,0,0-88.78536,86.82336c-.5027-.01693-1.0044-.03844-1.51128-.03844a44.81055,44.81055,0,0,0-44.81113,44.81113,44.81165,44.81165,0,0,0,44.81113,44.81212h69.516l.03187.0008.03107-.0008H8.18455a72.66,72.66,0,0,0,110.07489,1.27606,34.57359,34.57359,0,0,0,50.32586-1.27666h33.32418a42.78192,42.78192,0,0,0,0-85.56384Z"/><path class="g" d="M257.85138,518.90264a16.43514,16.43514,0,0,0-16.43523-16.435c-.35568,0-.70756.01537-1.05752.03751a23.39043,23.39043,0,0,0-29.55054-21.99539,24.51515,24.51515,0,0,0-41.23719-12.31757,26.75826,26.75826,0,0,0-39.80232,13.27574,23.398,23.398,0,0,0-32.35634,21.03722c-.35-.02214-.70174-.03751-1.05714-.03751a16.43538,16.43538,0,1,0,0,32.87075h42.25434a19.396,19.396,0,0,0,14.39883,6.37566,19.62421,19.62421,0,0,0,2.53037-.16921,22.85471,22.85471,0,0,0,32.17741,3.49007,30.34307,30.34307,0,0,0,42.2676-4.84382,21.59155,21.59155,0,0,0,27.86773-20.65176c0-.05058-.00792-.10021-.01241-.15022C257.84365,519.22712,257.85138,519.06574,257.85138,518.90264Z"/><path class="h" d="M669.62242,824.48012a46.93123,46.93123,0,0,0-57.891-32.31882,38.72953,38.72953,0,0,0-45.723-18.83477A49.35059,49.35059,0,0,0,489.29746,799.354a39.93572,39.93572,0,0,0-55.46775,36.09953,30.33057,30.33057,0,1,0-5.19884,60.21194h23.62761a24.512,24.512,0,0,0,35.68025.90483,51.511,51.511,0,0,0,58.43475,13.47515,55.92678,55.92678,0,0,0,50.072-4.39276,49.22337,49.22337,0,0,0,7.05007-1.99216,42.16192,42.16192,0,0,0,57.37975-7.95209,35.883,35.883,0,1,0,8.74708-71.22834Z"/><path class="g" d="M980.38214,996.18867a17.20107,17.20107,0,0,1,21.875-19.42289,28.2921,28.2921,0,0,1,48.58917,10.64209,22.8863,22.8863,0,0,1,31.78752,20.68791,17.38181,17.38181,0,1,1,2.97926,34.50619h-13.54044a14.04725,14.04725,0,0,1-20.44763.51858,29.51726,29.51726,0,0,1-42.33206,2.00119,28.42,28.42,0,0,1-28.9108-48.93307Z"/><path class="i" d="M509.883,1465.74651c1.13952,0,2.26709.04907,3.3881.12032a74.71628,74.71628,0,0,1,87.81312-71.9624A102.24836,102.24836,0,0,1,735.86943,1335.694,116.91056,116.91056,0,0,1,962.01068,1388.315c.53361-.00945,1.06139-.04035,1.59645-.04035a91.39315,91.39315,0,0,1,0,182.78629c-.0338,0-.06543-.00218-.09887-.00218H915.0448a121.95833,121.95833,0,0,1-184.75822,2.14278,58.03018,58.03018,0,0,1-84.469-2.14169H509.883a52.65669,52.65669,0,0,1,0-105.31338Z"/><path class="i" d="M2123.036-39.93068c-1.17563,0-2.33894.05062-3.49547.12413a77.32194,77.32194,0,0,0-77.28966-75.43937,77.04506,77.04506,0,0,0-13.3065,1.19629,105.45089,105.45089,0,0,0-98.60936-68.10416,105.13428,105.13428,0,0,0-40.44752,8.04885,120.65761,120.65761,0,0,0-113.42267-79.51122A120.617,120.617,0,0,0,1655.8479-132.99891a121.85015,121.85015,0,0,0,.73127,13.18274c-.55051-.00975-1.095-.04162-1.647-.04162A94.28854,94.28854,0,0,0,1560.64437-25.567a94.2883,94.2883,0,0,0,94.28776,94.28851c.03487,0,.0675-.00225.102-.00225h49.9994a125.59988,125.59988,0,0,0,96.26408,44.79463,125.56062,125.56062,0,0,0,94.34962-42.58394,59.86932,59.86932,0,0,0,87.14606-2.20956H2123.036a54.32552,54.32552,0,0,0,0-108.651Z"/><path class="h" d="M1988.44572,929.05485c-.45455,0-.90455.01916-1.35577.03424a45.62367,45.62367,0,0,0-59.86121-40.13541,57.75517,57.75517,0,0,0-106.58131-1.89879,30.65893,30.65893,0,0,0-45.25235,26.95527c0,.479.0143.954.03644,1.42774a49.60693,49.60693,0,0,0,36.73647,91.80662,45.608,45.608,0,0,0,66.03266,4.06522,45.67288,45.67288,0,0,0,40.55918-2.54277,45.58918,45.58918,0,0,0,51.22593-3.81375,40.19441,40.19441,0,1,0,18.46-75.89837Z"/><path class="i" d="M1907.94272,1290.18005a66.81583,66.81583,0,0,0-62.91845-76.1845,70.056,70.056,0,0,0-127.53706-20.94411,46.97,46.97,0,0,0-71.97237,28.64822,55.22925,55.22925,0,0,0-77.90278,39.32594,62.26427,62.26427,0,1,0-15.49918,122.5701h72.32781l.07065.10663a29.63489,29.63489,0,0,0,43.13714,1.09394,62.27023,62.27023,0,0,0,89.30485,4.22185,59.91138,59.91138,0,0,0,67.60326-5.42242h76.40417a46.96877,46.96877,0,0,0,6.982-93.41565Z"/><path class="f" d="M349.5095,1112.14449c-.80144,0-1.59428.03441-2.383.08451a52.70324,52.70324,0,0,0-66.58318-49.5601,55.24519,55.24519,0,0,0-108.264.92379,62.34,62.34,0,0,0-58.64944,15.44084,52.70155,52.70155,0,0,0-43.21634-26.54635A55.23613,55.23613,0,0,0-30.144,1035.97373a36.86047,36.86047,0,0,0-20.62858-6.27559,37.03282,37.03282,0,0,0-37.03364,37.03106,37.278,37.278,0,0,0,.56619,6.42117,56.89859,56.89859,0,0,0-47.86778,56.1703A56.88911,56.88911,0,0,0-78.218,1186.20984h16.447c.90251,1.3887,1.424,2.17272,1.424,2.17272a29.85758,29.85758,0,0,0,22.30005,9.97012,29.84245,29.84245,0,0,0,21.26164-8.86527,62.88362,62.88362,0,0,0,90.1842,4.2633,60.49876,60.49876,0,0,0,58.02971,1.23645,77.55461,77.55461,0,0,0,108.842-7.40023,36.90721,36.90721,0,0,0,53.72255-1.36311h35.57333c.19762,0,.392-.01226.589-.01484H349.5095a37.03225,37.03225,0,0,0,0-74.06449Z"/><path class="g" d="M1496.90317,673.93193c-.36023,0-.71668.01552-1.07106.038a23.61962,23.61962,0,0,0-27.75982-22.749,32.32314,32.32314,0,0,0-42.6088-18.40171,36.95822,36.95822,0,0,0-71.48864,16.63477c-.16868-.003-.33553-.01275-.50467-.01275a28.89155,28.89155,0,0,0,0,57.78309l.03125-.00069h15.32046a38.55393,38.55393,0,0,0,58.40647.67739,18.34471,18.34471,0,0,0,26.70266-.677h42.97215a16.646,16.646,0,0,0,0-33.29207Z"/><path class="j" d="M584.82668,209.58717a35.79135,35.79135,0,0,0-44.1495-24.6473,29.51258,29.51258,0,0,0-53.4525,2.7823,20.61041,20.61041,0,0,0-2.1415-.1128,20.33352,20.33352,0,0,0-19.6097,14.9724c-.3133-.0094-.6255-.0236-.941-.0236a30.37738,30.37738,0,0,0-30.1563,26.76046,20.58045,20.58045,0,0,0,4.25,40.71964h13.5213a23.53726,23.53726,0,0,0,19.5066,2.6809,33.082,33.082,0,0,0,46.0831,5.2811,24.9,24.9,0,0,0,33.571-2.1031c.5806.0313,1.164.0525,1.7525.0525a32.11815,32.11815,0,0,0,25.0951-12.0416,27.36548,27.36548,0,1,0,6.6709-54.3209Z"/></svg>