<svg aria-hidden="true" style="position: absolute; width: 0; height: 0; overflow: hidden;" version="1.1" xmlns="http://www.w3.org/2000/svg" xmlns:xlink="http://www.w3.org/1999/xlink">
<defs>
<symbol id="icon-backward" viewBox="0 0 32 32">
<title>backward</title>
<path d="M8.709 2.184l0.003-0.003c0.119-0.088 0.234-0.177 0.353-0.265 0.241-0.183 0.486-0.363 0.727-0.547 0.278-0.211 0.557-0.418 0.835-0.628 0.231-0.173 0.465-0.346 0.696-0.523 0.095-0.071 0.194-0.146 0.289-0.217v0.007c0.002 0.009 0.003 0.020 0.003 0.031s-0.001 0.021-0.003 0.032l0-0.001v0.442c0 0.278 0 0.557 0.003 0.835v0.537c0 0.418 0.003 0.832 0.007 1.25 0 0.034 0.003 0.662 0.010 0.662 0.003 0 0.007-0.003 0.010-0.007 0.024-0.015 0.045-0.031 0.065-0.048l-0 0 0.122-0.092c0.132-0.099 0.265-0.197 0.394-0.295q0.632-0.469 1.263-0.944c0.52-0.387 1.036-0.778 1.555-1.165 0.408-0.295 0.808-0.598 1.209-0.893 0.115-0.088 0.231-0.173 0.35-0.258 0.031-0.024 0.061-0.044 0.092-0.068 0.007-0.003 0.024-0.024 0.034-0.024s0.010 1.375 0.010 1.46v1.437c0 0.003-0.003 0.024 0 0.027 0.007 0.007 0.044 0 0.054 0h0.071c0.129 0.003 0.258 0.010 0.384 0.020 0.628 0.051 1.253 0.166 1.868 0.306 0.779 0.176 1.428 0.368 2.060 0.598l-0.118-0.037c0.652 0.234 1.284 0.537 1.895 0.866 0.684 0.372 1.269 0.752 1.82 1.173l-0.034-0.025c0.625 0.474 1.18 0.965 1.695 1.494l0.003 0.003c0.369 0.382 0.722 0.788 1.054 1.212l0.026 0.034c0.421 0.533 0.788 1.111 1.124 1.701 0.333 0.581 0.642 1.182 0.88 1.807 0.149 0.394 0.299 0.795 0.418 1.202 0.159 0.522 0.31 1.177 0.421 1.846l0.013 0.096c0.103 0.627 0.163 1.351 0.166 2.089v0.003c0.001 0.051 0.001 0.111 0.001 0.172 0 0.79-0.061 1.567-0.178 2.324l0.011-0.084c-0.061 0.387-0.139 0.774-0.234 1.155-0.037 0.149-0.075 0.302-0.115 0.452-0.006 0.023-0.012 0.052-0.017 0.081l-0 0.004c-0.011 0.036-0.021 0.066-0.033 0.094l0.002-0.006c-0.018 0.036-0.031 0.079-0.037 0.123l-0 0.002c-0.011 0.073-0.027 0.138-0.050 0.201l0.002-0.007q-0.046 0.153-0.102 0.306c-0.099 0.272-0.204 0.54-0.312 0.808-0.292 0.708-0.584 1.295-0.912 1.859l0.039-0.073c-0.417 0.723-0.848 1.344-1.324 1.928l0.020-0.026c-0.238 0.292-0.496 0.571-0.751 0.846-0.048 0.051-0.088 0.105-0.136 0.153-0.068 0.068-0.136 0.132-0.207 0.2-0.18 0.17-0.36 0.343-0.543 0.506-0.262 0.238-0.537 0.458-0.818 0.676-0.302 0.231-0.611 0.452-0.931 0.659-0.272 0.177-0.55 0.34-0.832 0.503-0.524 0.304-1.139 0.594-1.778 0.834l-0.086 0.028c-0.564 0.225-1.259 0.443-1.973 0.613l-0.109 0.022c-0.528 0.123-1.169 0.224-1.823 0.281l-0.055 0.004c-0.594 0.054-1.199 0.054-1.797 0.037-0.265-0.007-0.53-0.017-0.791-0.048-0.346-0.037-0.689-0.071-1.032-0.129-0.404-0.068-0.802-0.16-1.195-0.255-0.2-0.048-0.401-0.095-0.598-0.156-0.469-0.146-0.937-0.302-1.389-0.492-0.346-0.146-0.689-0.299-1.026-0.469-0.346-0.177-0.686-0.367-1.015-0.571-0.715-0.442-1.332-0.896-1.912-1.393l0.020 0.017c-0.289-0.248-0.571-0.506-0.839-0.778-0.211-0.214-0.418-0.431-0.615-0.659-0.326-0.38-0.642-0.774-0.934-1.182-0.068-0.095-0.132-0.187-0.2-0.282-0.029-0.038-0.057-0.082-0.082-0.127l-0.003-0.006c-0.051-0.105-0.129-0.2-0.194-0.299-0.078-0.122-0.149-0.245-0.224-0.37l-0.122-0.214c-0.031-0.058-0.061-0.115-0.095-0.17-0.031-0.044-0.054-0.095-0.082-0.143-0.102-0.197-0.197-0.401-0.292-0.605-0.19-0.414-0.367-0.832-0.533-1.257-0.088-0.228-0.16-0.465-0.228-0.703-0.085-0.295-0.163-0.591-0.231-0.89-0.071-0.295-0.136-0.594-0.19-0.893-0.051-0.275-0.085-0.547-0.115-0.825-0.024-0.204-0.044-0.411-0.058-0.618-0.017-0.309-0.024-0.618-0.027-0.931 0-0.319 0.003-0.638 0.017-0.958s0.048-0.635 0.088-0.951c0.051-0.38 0.112-0.761 0.187-1.138 0.065-0.326 0.139-0.652 0.234-0.971 0.061-0.2 0.105-0.401 0.173-0.598 0.092-0.262 0.19-0.523 0.292-0.781 0.247-0.622 0.481-1.123 0.739-1.609l-0.042 0.087c0.112-0.214 0.234-0.425 0.357-0.632 0.024-0.037 0.044-0.075 0.068-0.112 0.027-0.034 0.052-0.072 0.073-0.112l0.002-0.004c0.012-0.032 0.027-0.060 0.045-0.086l-0.001 0.001c0.088-0.143 0.187-0.282 0.285-0.421q0.199-0.285 0.408-0.56c0.119-0.16 0.238-0.319 0.363-0.472 0.037-0.044 0.071-0.088 0.112-0.129 0.011-0.014 0.025-0.025 0.040-0.034l0.001-0c0.024-0.010 0.048 0.010 0.068 0.024 0.078 0.058 0.149 0.126 0.224 0.187 0.098 0.085 0.197 0.166 0.295 0.251 0.309 0.262 0.618 0.526 0.927 0.788 0.221 0.19 0.445 0.377 0.659 0.571 0.010 0.007 0.041 0.027 0.044 0.041 0.003 0.010-0.010 0.024-0.017 0.031-0.024 0.034-0.048 0.065-0.075 0.098-0.105 0.132-0.211 0.262-0.312 0.397-0.051 0.068-0.109 0.129-0.156 0.197-0.058 0.078-0.109 0.16-0.163 0.241-0.143 0.217-0.285 0.438-0.421 0.662-0.316 0.52-0.567 1.083-0.798 1.647-0.115 0.282-0.221 0.567-0.312 0.859-0.075 0.241-0.129 0.489-0.187 0.734-0.149 0.623-0.252 1.352-0.288 2.098l-0.001 0.028c-0.020 0.346-0.027 0.693-0.014 1.039 0.010 0.316 0.044 0.632 0.082 0.948 0.073 0.556 0.173 1.045 0.303 1.521l-0.018-0.078q0.097 0.387 0.214 0.774c0.031 0.099 0.061 0.197 0.095 0.292 0.031 0.081 0.065 0.16 0.098 0.238 0.129 0.323 0.265 0.638 0.421 0.951 0.166 0.333 0.35 0.662 0.543 0.978 0.36 0.572 0.727 1.066 1.128 1.531l-0.014-0.016c0.223 0.258 0.449 0.492 0.685 0.716l0.005 0.004c0.268 0.258 0.547 0.503 0.835 0.737 0.533 0.428 1.13 0.824 1.761 1.165l0.063 0.031c1.188 0.651 2.58 1.098 4.058 1.253l0.048 0.004c0.4 0.046 0.863 0.072 1.333 0.072 0.357 0 0.71-0.015 1.059-0.045l-0.046 0.003c1.497-0.126 2.873-0.528 4.116-1.154l-0.064 0.029c0.678-0.334 1.258-0.688 1.802-1.089l-0.032 0.023c0.577-0.422 1.085-0.868 1.552-1.354l0.004-0.004c0.465-0.487 0.891-1.020 1.27-1.587l0.027-0.043c0.265-0.385 0.521-0.828 0.744-1.291l0.027-0.061c0.156-0.333 0.302-0.669 0.431-1.015 0.051-0.139 0.109-0.279 0.149-0.421 0.044-0.156 0.099-0.309 0.143-0.469 0.177-0.603 0.313-1.313 0.38-2.043l0.003-0.045c0.028-0.316 0.045-0.684 0.045-1.056 0-0.472-0.026-0.937-0.077-1.395l0.005 0.056c-0.063-0.523-0.144-0.976-0.248-1.421l0.017 0.086c-0.061-0.278-0.146-0.55-0.228-0.822-0.034-0.109-0.065-0.221-0.109-0.326-0.048-0.119-0.081-0.245-0.132-0.36-0.146-0.343-0.289-0.686-0.452-1.019-0.16-0.319-0.333-0.635-0.523-0.937-0.194-0.312-0.408-0.611-0.632-0.903-0.204-0.265-0.414-0.526-0.645-0.774-0.217-0.238-0.445-0.465-0.676-0.689-0.207-0.197-0.428-0.38-0.652-0.56-0.248-0.197-0.499-0.387-0.757-0.571-0.204-0.143-0.411-0.268-0.625-0.391-0.523-0.31-1.132-0.6-1.768-0.837l-0.080-0.026c-0.55-0.215-1.215-0.41-1.899-0.552l-0.085-0.015c-0.246-0.053-0.55-0.099-0.859-0.127l-0.031-0.002c-0.065-0.007-0.132-0.010-0.197-0.014-0.034 0-0.068-0.003-0.102-0.003-0.014-0.002-0.030-0.004-0.046-0.004s-0.032 0.001-0.047 0.004l0.002-0c-0.017 0.003-0.017 0.010-0.020 0.027-0.010 0.072-0.015 0.155-0.015 0.24 0 0.026 0 0.051 0.002 0.077l-0-0.004c-0.003 0.279-0.003 0.557-0.003 0.832 0 0.102 0.003 1.708-0.010 1.708-0.003 0-0.014-0.010-0.017-0.010-0.119-0.085-0.238-0.177-0.357-0.262-0.245-0.18-0.489-0.363-0.73-0.543-0.333-0.248-0.669-0.499-1.002-0.751-0.166-0.126-0.336-0.251-0.503-0.377-0.105-0.078-0.211-0.16-0.316-0.238-0.166-0.122-0.329-0.248-0.496-0.37-0.19-0.143-0.377-0.282-0.567-0.425-0.18-0.136-0.36-0.268-0.537-0.404-0.132-0.098-0.268-0.2-0.401-0.299-0.051-0.041-0.105-0.078-0.156-0.119v0.014c-0.001 0.014-0.001 0.031-0.001 0.048s0 0.033 0.001 0.050l-0-0.002v0.173c0 0.163-0.003 0.329-0.003 0.492-0.003 0.323-0.003 0.649-0.007 0.971 0 0.129 0 0.255-0.003 0.384-0.003 0.34-0.003 0.679-0.007 1.019 0 0.214-0.003 0.428-0.003 0.645-0.007-0.003-0.014-0.010-0.020-0.014-0.136-0.102-0.275-0.207-0.411-0.309-0.251-0.19-0.503-0.377-0.754-0.567-0.278-0.207-0.557-0.418-0.835-0.625-0.221-0.163-0.438-0.329-0.659-0.492l-0.234-0.173c-0.119-0.088-0.234-0.177-0.353-0.265-0.241-0.18-0.482-0.363-0.727-0.543-0.279-0.211-0.56-0.418-0.839-0.628-0.231-0.173-0.465-0.346-0.696-0.523-0.095-0.071-0.194-0.146-0.289-0.217l0.003-0.003c0.003-0.010 0.031-0.024 0.041-0.031 0.024-0.020 0.051-0.037 0.075-0.058 0.078-0.061 0.16-0.119 0.238-0.18 0.241-0.183 0.486-0.363 0.727-0.547 0.279-0.211 0.557-0.418 0.835-0.628 0.231-0.173 0.465-0.346 0.696-0.523 0.095-0.078 0.19-0.149 0.285-0.221z"></path>
</symbol>
<symbol id="icon-forward" viewBox="0 0 32 32">
<title>forward</title>
<path d="M23.291 2.184l-0.003-0.003c-0.119-0.088-0.234-0.177-0.353-0.265-0.241-0.183-0.486-0.363-0.727-0.547-0.279-0.211-0.557-0.418-0.835-0.628-0.231-0.173-0.465-0.346-0.696-0.523-0.095-0.071-0.194-0.146-0.289-0.217v0.007c-0.002 0.009-0.003 0.020-0.003 0.031s0.001 0.021 0.003 0.032l-0-0.001v0.442c0 0.278 0 0.557-0.003 0.835v0.537c0 0.418-0.003 0.832-0.007 1.25 0 0.034-0.003 0.662-0.010 0.662-0.003 0-0.007-0.003-0.010-0.007-0.024-0.015-0.045-0.031-0.065-0.048l0 0-0.122-0.092c-0.132-0.099-0.265-0.197-0.394-0.295q-0.632-0.469-1.263-0.944c-0.52-0.387-1.036-0.778-1.555-1.165-0.408-0.295-0.808-0.598-1.209-0.893-0.115-0.088-0.231-0.173-0.35-0.258-0.031-0.024-0.061-0.044-0.092-0.068-0.007-0.003-0.024-0.024-0.034-0.024s-0.010 1.375-0.010 1.46v1.437c0 0.003 0.003 0.024 0 0.027-0.007 0.007-0.044 0-0.054 0h-0.071c-0.129 0.003-0.258 0.010-0.384 0.020-0.628 0.051-1.253 0.166-1.868 0.306-0.778 0.176-1.428 0.368-2.060 0.598l0.118-0.037c-0.652 0.234-1.284 0.537-1.895 0.866-0.684 0.372-1.269 0.752-1.82 1.173l0.034-0.025c-0.625 0.474-1.18 0.965-1.695 1.494l-0.003 0.003c-0.369 0.382-0.722 0.788-1.054 1.212l-0.026 0.034c-0.421 0.533-0.788 1.111-1.124 1.701-0.333 0.581-0.642 1.182-0.88 1.807-0.149 0.394-0.299 0.795-0.418 1.202-0.159 0.522-0.31 1.177-0.421 1.846l-0.013 0.096c-0.103 0.627-0.163 1.351-0.166 2.089v0.003c-0.001 0.051-0.001 0.111-0.001 0.172 0 0.79 0.061 1.567 0.178 2.324l-0.011-0.084c0.061 0.387 0.139 0.774 0.234 1.155 0.037 0.149 0.075 0.302 0.115 0.452 0.006 0.023 0.012 0.052 0.016 0.081l0 0.004c0.011 0.036 0.021 0.066 0.033 0.094l-0.002-0.006c0.018 0.036 0.031 0.079 0.037 0.123l0 0.002c0.011 0.073 0.027 0.138 0.050 0.201l-0.002-0.007q0.046 0.153 0.102 0.306c0.099 0.272 0.204 0.54 0.312 0.808 0.292 0.708 0.584 1.295 0.912 1.859l-0.039-0.073c0.417 0.723 0.848 1.344 1.324 1.928l-0.020-0.026c0.238 0.292 0.496 0.571 0.751 0.846 0.048 0.051 0.088 0.105 0.136 0.153 0.068 0.068 0.136 0.132 0.207 0.2 0.18 0.17 0.36 0.343 0.543 0.506 0.262 0.238 0.537 0.458 0.818 0.676 0.302 0.231 0.611 0.452 0.931 0.659 0.272 0.177 0.55 0.34 0.832 0.503 0.524 0.304 1.139 0.594 1.778 0.834l0.086 0.028c0.564 0.225 1.259 0.443 1.973 0.613l0.109 0.022c0.528 0.123 1.169 0.224 1.823 0.281l0.055 0.004c0.594 0.054 1.199 0.054 1.797 0.037 0.265-0.007 0.53-0.017 0.791-0.048 0.346-0.037 0.689-0.071 1.032-0.129 0.404-0.068 0.802-0.16 1.195-0.255 0.2-0.048 0.401-0.095 0.598-0.156 0.469-0.146 0.937-0.302 1.389-0.492 0.346-0.146 0.689-0.299 1.026-0.469 0.346-0.177 0.686-0.367 1.015-0.571 0.715-0.442 1.332-0.896 1.912-1.393l-0.020 0.017c0.289-0.248 0.571-0.506 0.839-0.778 0.211-0.214 0.418-0.431 0.615-0.659 0.326-0.38 0.642-0.774 0.934-1.182 0.068-0.095 0.132-0.187 0.2-0.282 0.029-0.038 0.057-0.082 0.082-0.127l0.003-0.006c0.051-0.105 0.129-0.2 0.194-0.299 0.078-0.122 0.149-0.245 0.224-0.37l0.122-0.214c0.031-0.058 0.061-0.115 0.095-0.17 0.031-0.044 0.054-0.095 0.081-0.143 0.102-0.197 0.197-0.401 0.292-0.605 0.19-0.414 0.367-0.832 0.533-1.257 0.088-0.228 0.16-0.465 0.228-0.703 0.085-0.295 0.163-0.591 0.231-0.89 0.071-0.295 0.136-0.594 0.19-0.893 0.051-0.275 0.085-0.547 0.115-0.825 0.024-0.204 0.044-0.411 0.058-0.618 0.017-0.309 0.024-0.618 0.027-0.931 0-0.319-0.003-0.638-0.017-0.958s-0.048-0.635-0.088-0.951c-0.051-0.38-0.112-0.761-0.187-1.138-0.065-0.326-0.139-0.652-0.234-0.971-0.061-0.2-0.105-0.401-0.173-0.598-0.092-0.262-0.19-0.523-0.292-0.781-0.247-0.622-0.481-1.123-0.739-1.609l0.042 0.087c-0.112-0.214-0.234-0.425-0.357-0.632-0.024-0.037-0.044-0.075-0.068-0.112-0.027-0.034-0.052-0.072-0.073-0.112l-0.002-0.004c-0.012-0.032-0.027-0.060-0.045-0.086l0.001 0.001c-0.088-0.143-0.187-0.282-0.285-0.421q-0.199-0.285-0.408-0.56c-0.119-0.16-0.238-0.319-0.363-0.472-0.037-0.044-0.071-0.088-0.112-0.129-0.011-0.014-0.025-0.025-0.040-0.034l-0.001-0c-0.024-0.010-0.048 0.010-0.068 0.024-0.078 0.058-0.149 0.126-0.224 0.187-0.099 0.085-0.197 0.166-0.295 0.251-0.309 0.262-0.618 0.526-0.927 0.788-0.221 0.19-0.445 0.377-0.659 0.571-0.010 0.007-0.041 0.027-0.044 0.041-0.003 0.010 0.010 0.024 0.017 0.031 0.024 0.034 0.048 0.065 0.075 0.098 0.105 0.132 0.211 0.262 0.312 0.397 0.051 0.068 0.109 0.129 0.156 0.197 0.058 0.078 0.109 0.16 0.163 0.241 0.143 0.217 0.285 0.438 0.421 0.662 0.316 0.52 0.567 1.083 0.798 1.647 0.115 0.282 0.221 0.567 0.312 0.859 0.075 0.241 0.129 0.489 0.187 0.734 0.149 0.623 0.252 1.352 0.288 2.098l0.001 0.028c0.020 0.346 0.027 0.693 0.014 1.039-0.010 0.316-0.044 0.632-0.081 0.948-0.073 0.556-0.173 1.045-0.303 1.521l0.018-0.078q-0.097 0.387-0.214 0.774c-0.031 0.099-0.061 0.197-0.095 0.292-0.031 0.081-0.065 0.16-0.099 0.238-0.129 0.323-0.265 0.638-0.421 0.951-0.166 0.333-0.35 0.662-0.543 0.978-0.36 0.572-0.727 1.066-1.128 1.531l0.014-0.016c-0.224 0.258-0.449 0.492-0.685 0.716l-0.005 0.004c-0.268 0.258-0.547 0.503-0.835 0.737-0.533 0.428-1.13 0.824-1.761 1.165l-0.063 0.031c-1.188 0.651-2.58 1.098-4.058 1.253l-0.048 0.004c-0.4 0.046-0.863 0.072-1.333 0.072-0.357 0-0.71-0.015-1.059-0.045l0.046 0.003c-1.497-0.126-2.873-0.528-4.116-1.154l0.064 0.029c-0.678-0.334-1.258-0.688-1.802-1.089l0.032 0.023c-0.577-0.422-1.085-0.868-1.552-1.354l-0.004-0.004c-0.465-0.487-0.891-1.020-1.27-1.587l-0.027-0.043c-0.265-0.385-0.521-0.828-0.744-1.291l-0.027-0.061c-0.156-0.333-0.302-0.669-0.431-1.015-0.051-0.139-0.109-0.279-0.149-0.421-0.044-0.156-0.098-0.309-0.143-0.469-0.177-0.603-0.313-1.313-0.38-2.043l-0.003-0.045c-0.028-0.316-0.045-0.684-0.045-1.056 0-0.472 0.026-0.937 0.077-1.395l-0.005 0.056c0.063-0.523 0.144-0.976 0.248-1.421l-0.017 0.086c0.061-0.278 0.146-0.55 0.228-0.822 0.034-0.109 0.065-0.221 0.109-0.326 0.048-0.119 0.082-0.245 0.132-0.36 0.146-0.343 0.289-0.686 0.452-1.019 0.16-0.319 0.333-0.635 0.523-0.937 0.194-0.312 0.408-0.611 0.632-0.903 0.204-0.265 0.414-0.526 0.645-0.774 0.217-0.238 0.445-0.465 0.676-0.689 0.207-0.197 0.428-0.38 0.652-0.56 0.248-0.197 0.499-0.387 0.757-0.571 0.204-0.143 0.411-0.268 0.625-0.391 0.523-0.31 1.132-0.6 1.768-0.837l0.080-0.026c0.55-0.215 1.215-0.41 1.899-0.552l0.085-0.015c0.246-0.053 0.55-0.099 0.859-0.127l0.031-0.002c0.065-0.007 0.132-0.010 0.197-0.014 0.034 0 0.068-0.003 0.102-0.003 0.014-0.002 0.030-0.004 0.046-0.004s0.032 0.001 0.047 0.004l-0.002-0c0.017 0.003 0.017 0.010 0.020 0.027 0.010 0.072 0.015 0.155 0.015 0.24 0 0.026-0.001 0.051-0.002 0.077l0-0.004c0.003 0.279 0.003 0.557 0.003 0.832 0 0.102-0.003 1.708 0.010 1.708 0.003 0 0.014-0.010 0.017-0.010 0.119-0.085 0.238-0.177 0.357-0.262 0.245-0.18 0.489-0.363 0.73-0.543 0.333-0.248 0.669-0.499 1.002-0.751 0.166-0.126 0.336-0.251 0.503-0.377 0.105-0.078 0.211-0.16 0.316-0.238 0.166-0.122 0.329-0.248 0.496-0.37 0.19-0.143 0.377-0.282 0.567-0.425 0.18-0.136 0.36-0.268 0.537-0.404 0.132-0.098 0.268-0.2 0.401-0.299 0.051-0.041 0.105-0.078 0.156-0.119v0.014c0.001 0.014 0.001 0.031 0.001 0.048s-0 0.033-0.001 0.050l0-0.002v0.173c0 0.163 0.003 0.329 0.003 0.492 0.003 0.323 0.003 0.649 0.007 0.971 0 0.129 0 0.255 0.003 0.384 0.003 0.34 0.003 0.679 0.007 1.019 0 0.214 0.003 0.428 0.003 0.645 0.007-0.003 0.014-0.010 0.020-0.014 0.136-0.102 0.275-0.207 0.411-0.309 0.251-0.19 0.503-0.377 0.754-0.567 0.279-0.207 0.557-0.418 0.835-0.625 0.221-0.163 0.438-0.329 0.659-0.492l0.234-0.173c0.119-0.088 0.234-0.177 0.353-0.265 0.241-0.18 0.482-0.363 0.727-0.543 0.279-0.211 0.56-0.418 0.839-0.628 0.231-0.173 0.465-0.346 0.696-0.523 0.095-0.071 0.194-0.146 0.289-0.217l-0.003-0.003c-0.003-0.010-0.031-0.024-0.041-0.031-0.024-0.020-0.051-0.037-0.075-0.058-0.078-0.061-0.16-0.119-0.238-0.18-0.241-0.183-0.486-0.363-0.727-0.547-0.279-0.211-0.557-0.418-0.835-0.628-0.231-0.173-0.465-0.346-0.696-0.523-0.095-0.078-0.19-0.149-0.285-0.221z"></path>
</symbol>
<symbol id="icon-cc" viewBox="0 0 32 32">
<title>cc</title>
<path d="M26.666 14.25v-1.833c0-1-0.75-1.75-1.75-1.75h-5.333c-1 0-1.833 0.75-1.833 1.75v7.166c0 1 0.833 1.75 1.833 1.75h5.333c1 0 1.75-0.75 1.75-1.75v-1.833h-2.667v0.917h-3.583v-5.333h3.583v0.917h2.667zM14.25 14.25v-1.833c0-1-0.833-1.75-1.833-1.75h-5.333c-1 0-1.75 0.75-1.75 1.75v7.166c0 1 0.75 1.75 1.75 1.75h5.333c1 0 1.833-0.75 1.833-1.75v-1.833h-2.667v0.917h-3.583v-5.333h3.583v0.917h2.667zM28.416 1.75c1.917 0 3.583 1.667 3.583 3.583v21.333c0 1.917-1.667 3.583-3.583 3.583h-24.833c-2 0-3.583-1.667-3.583-3.583v-21.333c0-1.917 1.583-3.583 3.583-3.583h24.833z"></path>
</symbol>
<symbol id="icon-spinner" viewBox="0 0 32 32">
<title>spinner</title>
<path d="M31.999 16.516c-0.041-2.156-0.509-4.306-1.373-6.272-0.861-1.967-2.111-3.75-3.646-5.222-1.534-1.474-3.353-2.639-5.321-3.408-1.968-0.772-4.083-1.14-6.173-1.095-2.090 0.041-4.171 0.496-6.074 1.334-1.904 0.835-3.63 2.047-5.055 3.534-1.426 1.486-2.553 3.248-3.296 5.154-0.746 1.905-1.101 3.952-1.056 5.976 0.041 2.024 0.483 4.036 1.294 5.877 0.809 1.842 1.983 3.51 3.422 4.888 1.439 1.379 3.144 2.468 4.987 3.184 1.842 0.719 3.82 1.061 5.778 1.017 1.958-0.042 3.901-0.469 5.679-1.255 1.779-0.783 3.39-1.918 4.721-3.311 1.331-1.391 2.382-3.039 3.072-4.82 0.42-1.079 0.706-2.206 0.856-3.348 0.040 0.002 0.081 0.004 0.121 0.004 1.14 0 2.064-0.924 2.064-2.064 0-0.058-0.003-0.115-0.008-0.172h0.008zM28.719 21.997c-0.757 1.716-1.854 3.27-3.199 4.553s-2.935 2.296-4.652 2.96c-1.717 0.667-3.557 0.982-5.383 0.938-1.826-0.042-3.632-0.443-5.284-1.176-1.653-0.731-3.151-1.79-4.386-3.087s-2.21-2.831-2.849-4.485c-0.641-1.654-0.943-3.426-0.899-5.185 0.042-1.759 0.43-3.497 1.137-5.086 0.705-1.59 1.725-3.031 2.975-4.219s2.726-2.125 4.318-2.737c1.591-0.615 3.294-0.903 4.987-0.859 1.693 0.042 3.362 0.417 4.888 1.098 1.527 0.679 2.911 1.661 4.052 2.864s2.039 2.622 2.625 4.151c0.589 1.529 0.864 3.163 0.82 4.789h0.008c-0.005 0.057-0.008 0.114-0.008 0.172 0 1.065 0.806 1.941 1.841 2.052-0.201 1.123-0.533 2.22-0.993 3.257z"></path>
</symbol>
<symbol id="icon-wave" viewBox="0 0 32 32">
<title>wave</title>
<path d="M15.001 30c-0.034 0-0.069-0.002-0.103-0.005-0.452-0.047-0.816-0.393-0.885-0.843l-3.19-20.737-2.845 12.802c-0.102 0.457-0.507 0.783-0.976 0.783h-6c-0.552 0-1-0.448-1-1s0.448-1 1-1h5.198l3.826-17.216c0.104-0.47 0.528-0.798 1.009-0.783s0.882 0.372 0.955 0.847l3.418 22.219 4.657-12.418c0.149-0.397 0.532-0.657 0.955-0.649s0.796 0.282 0.93 0.684l3.051 9.154 1.051-3.154c0.136-0.408 0.518-0.684 0.949-0.684h4c0.552 0 1 0.448 1 1s-0.448 1-1 1h-3.279l-1.772 5.316c-0.136 0.408-0.518 0.684-0.949 0.684s-0.813-0.275-0.949-0.684l-3.107-9.32-5.008 13.355c-0.147 0.393-0.523 0.649-0.936 0.649z"></path>
</symbol>
<symbol id="icon-download" viewBox="0 0 32 32">
<title>download</title>
<path d="M24.533 13.867l-8.533 8.533-8.533-8.533h5.333v-12.8h6.4v12.8zM16 22.4h-15.999v8.533h31.999v-8.533h-15.999zM29.866 26.666h-4.267v-2.133h4.267v2.133z"></path>
</symbol>
<symbol id="icon-play" viewBox="0 0 32 32">
<title>play</title>
<path d="M2.667 0l26.666 16-26.666 16z"></path>
</symbol>
<symbol id="icon-pause" viewBox="0 0 32 32">
<title>pause</title>
<path d="M0 0h13.333v31.999h-13.333zM18.666 0h13.333v31.999h-13.333z"></path>
</symbol>
<symbol id="icon-previous" viewBox="0 0 32 32">
<title>previous</title>
<path d="M6.667 31.999v-31.999h5.333v14.666l13.333-13.333v29.333l-13.333-13.333v14.666z"></path>
</symbol>
<symbol id="icon-next" viewBox="0 0 32 32">
<title>next</title>
<path d="M25.333 0v31.999h-5.333v-14.666l-13.333 13.333v-29.333l13.333 13.333v-14.666z"></path>
</symbol>
<symbol id="icon-loop" viewBox="0 0 32 32">
<title>loop</title>
<path d="M10 20v-6h6l-8-8-8 8h6v10h12l-4-4zM26 18v-10h-12l4 4h4v6h-6l8 8 8-8z"></path>
</symbol>
<symbol id="icon-arrow-down" viewBox="0 0 32 32">
<title>arrow-down</title>
<path d="M31.999 9l-2-2-13.999 13.999-13.999-13.999-2 2 15.999 15.999 15.999-15.999z"></path>
</symbol>
</defs>
</svg>
