<svg id="Layer_1" xmlns="http://www.w3.org/2000/svg" viewBox="0 0 1920 1344"><style>.st0{fill:#c8e3f7}.st1{fill:#44acf5}.st2{fill:#73c1f8}.st3{fill:#92cdf7}.st4{fill:#afdaf9}.st5{fill:#6dbef7}.st6{fill:#7ec4f6}.st7{fill:#68bcf8}.st8{fill:#83c6f5}.st9{fill:#aedaf9}.st10{fill:#72c0f8}.st11{fill:#6fbff7}.st12{fill:#a9d7f8}.st13{fill:#9dd2f8}.st14{fill:#a4d5f8}.st15{fill:#8ccaf6}.st16{fill:#a3d4f8}.st17{fill:#8bc9f6}.st18{fill:#78c2f8}.st19{fill:#91cdf7}.st20{fill:#94cef7}.st21{fill:#8ac9f6}.st22{fill:#79c3f8}.st23{fill:#98cff7}.st24{fill:#6abcf7}.st25{fill:#71bff8}.st26{fill:#91ccf6}.st27{fill:#a1d3f8}.st28{fill:#84c6f6}.st29{fill:#a7d7f8}.st30{fill:#7cc5f8}.st31{fill:#abd8f9}.st32{fill:#bee1fa}.st33{fill:#bbe0fa}.st34{fill:#b6ddfa}.st35{fill:#76c1f8}.st36{fill:#77c2f8}.st37{fill:#badffa}.st38{fill:#b8defa}.st39{fill:#b4ddf9}.st40{fill:#bce0f9}.st41{fill:#b3dcf9}.st42{fill:#7ac3f7}.st43{fill:#a7d7f9}.st44{fill:#94cdf7}.st45{fill:#b7defa}.st46{fill:#aad8f9}.st47{fill:#a3d5f8}.st48{fill:#bcddf5}.st49{fill:#badef8}.st50{fill:#c7e3f7}.st51{fill:#90ccf7}.st52{fill:#84c7f6}.st53{fill:#86c8f8}.st54{fill:#75c1f8}.st55{fill:#a2d4f8}.st56{fill:#b2dbf9}.st57{fill:#92cdf6}.st58{fill:#71c0f8}.st59{fill:#68bbf7}.st60{fill:#d9ecfa}.st61{fill:#c3e2f8}.st62{fill:#cce6f8}.st63{fill:#c3e2f9}.st64{fill:#d3e9f9}.st65{fill:#84c6f5}.st66{fill:#68baf6}.st67{fill:#5eb7f7}.st68{fill:#57b4f6}.st69{fill:#a5d5f8}.st70{fill:#83c5f6}.st71{fill:#66baf7}.st72{fill:#c1e0f6}.st73{fill:#b6ddf9}.st74{fill:#a5d5f9}.st75{fill:#add9f9}.st76{fill:#9ed2f8}.st77{fill:#9cd1f7}.st78{fill:#96cff7}.st79{fill:#b1d9f6}.st80{fill:#c0dff6}.st81{fill:#bcddf6}.st82{fill:#e0effa}.st83{fill:#7bc4f8}.st84{fill:#95cef7}.st85{fill:#9ad0f7}.st86{fill:#7bc3f6}.st87{fill:#83c6f6}.st88{fill:#87c8f6}.st89{fill:#8fcbf6}</style><title>simplified_sb-bg</title><path class="st0" d="M-27.1-33.1h1974.2V1377H-27.1z" id="bg_color"/><g id="simplified"><path class="st1" d="M1930 1448v-266.2l-4.4-4.8-159.6 10v261z" id="Layer_154"/><path class="st2" d="M1245.6 1244.7l193.5 203.3h80.5l-89.9-276.9z" id="Layer_153"/><path class="st3" d="M1440.2 934.3l-194.6 310.4 184.1-73.6z" id="Layer_152"/><path class="st4" d="M251.2 29.2L109.1 166.1l289.4 21.1z" id="Layer_151"/><path class="st5" d="M1024.5 1407.8L914 1276.3V1448h63.8z" id="Layer_150"/><path class="st6" d="M1024.6 1407.8l220.5-162.8.5-.3-331.5 31.6z" id="Layer_149"/><path class="st7" d="M93.3 1323.6l28.2 124.4H246v-.2z" id="Layer_148"/><path class="st3" d="M903.6 1186.8l342 57.9-357.8-78.9z" id="Layer_147"/><path class="st8" d="M1245.6 1244.7l-342-57.9 10.5 89.5z" id="Layer_146"/><path class="st9" d="M777.3 923.8l-89.5-68.4 47.4 99.9z" id="Layer_145"/><path class="st4" d="M777.3 923.8l-42.1 31.5 10.5 5.3z" id="Layer_144"/><path class="st10" d="M818.5 1448l-272.7-155.9-37.9 155.9z" id="Layer_143"/><path class="st11" d="M1766 1349.7V1171h-336.3l.3.1v.1l-.3-.1.3 276.9h336v-97.6l.4-.5-.4-.2z" id="Layer_142"/><path class="st12" d="M777.3 923.8l-31.6 36.8.3 35.4z" id="Layer_140"/><path class="st13" d="M777.3 923.8L746 996l-.5 1 .2.4 142.1 168.4z" id="Layer_139"/><path class="st14" d="M1398.1 755.4l310.4-157.8-63.1-305.2z" id="Layer_138"/><path class="st15" d="M1803.2 318.7l-157.8-26.3 63.1 305.2z" id="Layer_137"/><path class="st16" d="M293.2 423.9l105.3-236.7-289.4-21.1z" id="Layer_136"/><path class="st17" d="M545.8 1292v.1l320.9-42.1-121.2-253z" id="Layer_135"/><path class="st18" d="M903.8 1448l-37.1-198-320.9 42.1L818.5 1448z" id="Layer_134"/><path class="st19" d="M887.8 1165.8L745.7 997.4l121 252.6z" id="Layer_133"/><path class="st20" d="M887.8 1165.8l-21.1 84.2 36.9-63.2z" id="Layer_132"/><path class="st21" d="M914.1 1276.3l-10.5-89.5-36.9 63.2z" id="Layer_131"/><path class="st22" d="M866.7 1250l37.1 198H914v-171.8z" id="Layer_130"/><path class="st23" d="M1619.1 160.9l-57.9 47.3 84.2 84.2z" id="Layer_128"/><path class="st24" d="M51.2 1397.3l26 50.7H121v-2.1l-27.7-122.3z" id="Layer_127"/><path class="st25" d="M93 1324.2l.3-.6L-10 1349v48h45.3l16.1.1z" id="Layer_126"/><path class="st26" d="M314 1044.7L157.6 1003l-1.1-.3L93.4 1323v.2l-.1.4L314 1045.2z" id="Layer_124"/><path class="st27" d="M366.3 882l-209.8 120.7 157.8 42.1L366.8 882z" id="Layer_123"/><path class="st28" d="M-10 1088.3l103.5 235.3 63.2-320.9-166.7 8.8z" id="Layer_122"/><path class="st29" d="M819-2.2L398.1 187.2 819 418.7z" id="Layer_121"/><path class="st30" d="M1930 121.1l-126.8 197.6 126.8-54.3z" id="Layer_120"/><path class="st31" d="M1229.8 660.7L777.3 923.8l110.5 242z" id="Layer_119"/><path class="st32" d="M929.9 623.9L777.3 923.8l452.5-263.1z" id="Layer_118"/><path class="st33" d="M929.9 623.9l299.9 36.8L972 587z" id="Layer_117"/><path class="st4" d="M1166.6 571.3L972 587l257.8 73.7z" id="Layer_116"/><path class="st34" d="M1166.6 571.3l63.2 89.4 415.6-368.3z" id="Layer_115"/><path class="st4" d="M1398.1 755.4l247.3-463-415.6 368.3z" id="Layer_114"/><path class="st35" d="M1803.2 318.7l-94.6 278.8 221.4-19.7v-99z" id="Layer_113"/><path class="st36" d="M1803.2 318.7L1930 478.8V369.4z" id="Layer_112"/><path class="st37" d="M929.9 623.9l36.8-63.2-147.3-142z" id="Layer_111"/><path class="st32" d="M972 281.9L819.4 418.7l147.3 142z" id="Layer_110"/><path class="st38" d="M929.9 623.9L972 587l-5.3-26.3z" id="Layer_109"/><path class="st39" d="M1166.6 571.3l-199.9-10.6L972 587z" id="Layer_108"/><path class="st39" d="M972 281.9l-5.3 278.8 199.9 10.6z" id="Layer_107"/><path class="st40" d="M1165-6.2v.7l1.6 13.5h.1l1.2-16h-2.9z" id="Layer_106"/><path class="st41" d="M1407.2-8l211.9 168.9L1930 57.2V25.1L1814.2-8z" id="Layer_105"/><path class="st42" d="M1930 577.8l-221.8 19.8L1930 807.5z" id="Layer_104"/><path class="st43" d="M1519.1 802.8l189-204.8.2-.3-310.2 157.7z" id="Layer_102"/><path class="st27" d="M-1 819l157.5 183.7 210.4-121L-1 818.6z" id="Layer_101"/><path class="st44" d="M156.5 1002.7L-1 819h-.5l-8.5 39.4V1011h8.5l157.9-8.3z" id="Layer_100"/><path class="st45" d="M1166.6 571.3l268.3-399.9L972 281.9z" id="Layer_99"/><path class="st4" d="M1166.6 8.3L972 281.9l462.9-110.5z" id="Layer_98"/><path class="st46" d="M1434.9 171.4L1167 570.7l-.4.6.5-.3 478.3-278.6z" id="Layer_97"/><path class="st0" d="M1167.9-8l-.9 11.7v4.8L1434.3 171h.4L1308.6-8z" id="Layer_96"/><path class="st47" d="M1645.4 292.4l-84.2-84.2-126.3-36.8h.1z" id="Layer_95"/><path class="st48" d="M688 854.9v.6l89.3 68.3L735.2 708z" id="Layer_94"/><path class="st49" d="M777.3 923.8l152.6-299.9L735.2 708z" id="Layer_93"/><path class="st50" d="M819.3 419l-84.1 289h.1l194.6-84.1-110.5-205.2z" id="Layer_92"/><path class="st51" d="M1645.4 292.4l68.4-31.6-94.7-99.9z" id="Layer_91"/><path class="st52" d="M1713.8 260.8l216.2-178V57.2l-310.9 103.7z" id="Layer_90"/><path class="st53" d="M1713.8 260.8l-68.4 31.6 157.8 26.3z" id="Layer_89"/><path class="st54" d="M1713.8 260.8l89.4 57.9L1930 121.1V82.8z" id="Layer_88"/><path class="st55" d="M145.9 460.8L293 424l.2-.1-184.1-257.8z" id="Layer_87"/><path class="st4" d="M1814.2-8L1930 25.1V-8z" id="Layer_86"/><path class="st56" d="M819.4 418.7L972 281.9 914.1 50.4z" id="Layer_85"/><path class="st4" d="M903.5 44.5L819.4-2.4l-.4.4v420.6l.4.1 94.7-368.3z" id="Layer_84"/><path class="st4" d="M972 281.9L1166.6 8.3 914.1 50.4z" id="Layer_83"/><path class="st57" d="M1440.2 934.3l457.7 94.7-378.8-226.2z" id="Layer_82"/><path class="st17" d="M1519.1 802.8l378.8 226.2-189.2-431-.4-.3-.2.3z" id="Layer_81"/><path class="st58" d="M1930 982V807.5L1708.7 598l189.1 431z" id="Layer_80"/><path class="st59" d="M1897.8 1028.9v.1l32.2 7.5V982z" id="Layer_79"/><path class="st33" d="M251.2 29.2l147.2 157.9.3-.1L639-7.5V-8H411.4z" id="Layer_78"/><path class="st60" d="M251.9 29h.7L411-7.5V-8h-76.6z" id="Layer_77"/><path class="st61" d="M639.1-8L398.7 187h.2L819-2v-.6L813.2-8z" id="Layer_76"/><path class="st62" d="M914.1 50.4L916.2-8h-99l2.2 5.6 94 52.4z" id="Layer_73"/><path class="st63" d="M916.2-8l-2.1 58.4 2.3-.4 250.2-41.9L1127.2-8z" id="Layer_72"/><path class="st64" d="M1165.9 8h.7l-1.8-16h-37.6z" id="Layer_71"/><path class="st65" d="M1440.2 934.3l-10.5 236.8 431.4 15.7z" id="Layer_70"/><path class="st66" d="M1861.1 1186.8l-431.4-15.7 336.7 178.8z" id="Layer_69"/><path class="st17" d="M1440.2 934.3l420.9 252.5 36.8-157.8z" id="Layer_68"/><path class="st67" d="M1897.9 1029l-36.8 157.8 68.9-74.6v-75.7z" id="Layer_67"/><path class="st68" d="M1930 1181.8v-70l-69.3 75z" id="Layer_66"/><path class="st25" d="M-10 1191.9V1349l103.3-25.4z" id="Layer_64"/><path class="st54" d="M93.3 1323.6l.1-.3-103.4-235V1191.9z" id="Layer_63"/><path class="st69" d="M366.8 882l-52.5 162.8L388 929l-21-47z" id="Layer_61"/><path class="st29" d="M746 996l-.3-35.4-10.7-5.7L388 929z" id="Layer_60"/><path class="st15" d="M145.9 460.8l-36.8-294.7L-10 338.5V457.3z" id="Layer_59"/><path class="st70" d="M109.1 166.1l-.1-.1-119-16.9V338.5z" id="Layer_57"/><path class="st15" d="M-1.4 818.5l147.3-357.7-155.9-3.5v326.3z" id="Layer_56"/><path class="st10" d="M1025 1407.5v.6l51.1 39.9h253.8l-84.3-203.3z" id="Layer_54"/><path class="st71" d="M1329.9 1448H1439v-.2l-193.4-203.1z" id="Layer_53"/><path class="st72" d="M687.8 855.4L735.2 708l-221-10.5z" id="Layer_52"/><path class="st73" d="M734.1 708h1.1l84.2-289.3-305.2 278.8z" id="Layer_51"/><path class="st27" d="M251.2 29.3L56.5 92.5l52.6 73.6z" id="Layer_50"/><path class="st23" d="M108.1 166l1 .1-52.6-73.6-66.5 6.3v50.3z" id="Layer_49"/><path class="st74" d="M1229.8 660.7l-342 505.1 505.1-299.9z" id="Layer_48"/><path class="st23" d="M1392.9 865.9l-505.1 299.9 357.8 78.9z" id="Layer_47"/><path class="st75" d="M1398.1 755.4l-168.3-94.7 163.1 205.2z" id="Layer_46"/><path class="st27" d="M1392.9 865.9l-147.3 378.8 194.6-310.4z" id="Layer_45"/><path class="st12" d="M1398.1 755.4L1393 863l-.1 2.9 126.1-63.1v-.1z" id="Layer_44"/><path class="st29" d="M1392.9 865.9l47.3 68.4L1519 803h-.4z" id="Layer_43"/><path class="st4" d="M146 460.8l215.6 163.1-68.4-200-.2.1z" id="Layer_41"/><path class="st73" d="M366.9 487.1l-73.7-63.2 68.4 200z" id="Layer_40"/><path class="st41" d="M366.9 487.1l-5.3 136.8 152.6 73.6z" id="Layer_39"/><path class="st39" d="M362 624.8l4.9 256.9 57.9-94.7z" id="Layer_38"/><path class="st4" d="M362 624.8L424.8 787l89.4-89.5-.2-.1L362 624z" id="Layer_37"/><path class="st55" d="M145.8 461L-1 817.6v.7l362.6-194.4L146.2 461z" id="Layer_36"/><path class="st12" d="M361.6 623.9L-1 818.3v.3l367.9 63.1L362 624z" id="Layer_35"/><path class="st76" d="M1493.5 171h46.3L1361.1-8H1309v1l125.7 178h43.3z" id="Layer_34"/><path class="st23" d="M1361.1-8l178.7 179 .6.4 78.7-10.5L1407.2-8z" id="Layer_33"/><path class="st77" d="M1561 208v-.2l-20.8-36.8h-105.9l.6.4 125.5 36.6z" id="Layer_32"/><path class="st78" d="M1540.2 171.4l20.9 36.6h.4l57.5-47 .1-.1z" id="Layer_31"/><path class="st56" d="M367 881.9l20.9 47.1h.1l99.9-105.2L367 881.6z" id="Layer_30"/><path class="st79" d="M424.8 787l-57.9 94.7 121-57.9z" id="Layer_29"/><path class="st41" d="M388 929l346.6 26-246.7-131.2z" id="Layer_28"/><path class="st80" d="M514.2 697.6v-.1L424.8 787l63.1 37z" id="Layer_26"/><path class="st81" d="M514.2 697.5l-26.3 126.3 199.9 31.6z" id="Layer_25"/><path class="st56" d="M734.6 955h.4v-.1l-47.2-99.5-199.9-31.6z" id="Layer_24"/><path class="st37" d="M251 29.4l.2-.2L202.7-8H54l2.5 100H58z" id="Layer_23"/><path class="st82" d="M203-7.4l48.2 36.6.7-.2L334-7.5V-8H203z" id="Layer_22"/><path class="st83" d="M1930 369.4V278h-.7l-126.1 40.7z" id="Layer_21"/><path class="st36" d="M1803.2 318.7l126.8-40.9v-13.4z" id="Layer_20"/><path class="st19" d="M314 1045.2L93.3 1323.6l368.3-57.8-147.3-221-.3-.1z" id="Layer_19"/><path class="st36" d="M461.6 1265.8l-368.3 57.8L246.1 1448h181.5z" id="Layer_18"/><path class="st84" d="M314.3 1044.8l147.3 221L388 929z" id="Layer_17"/><path class="st85" d="M461.6 1265.8l282.9-266.6 1.5-3.2-358-67v.2z" id="Layer_16"/><path class="st86" d="M461.6 1265.8L428 1446v2h64z" id="Layer_15"/><path class="st87" d="M492 1448h15.9l37.9-155.9-84.2-26.3z" id="Layer_14"/><path class="st84" d="M461.6 1265.8l84.2 26.3v-.1l198.7-292.8z" id="Layer_13"/><path class="st38" d="M366.8 487h.1L430 339.8l-136.8 84.1z" id="Layer_12"/><path class="st46" d="M430 339.8l-31.5-152.6-105.3 236.7z" id="Layer_11"/><path class="st4" d="M367 486.9v.3l147.2 210.3-.2-.9-84-356.8z" id="Layer_10"/><path class="st12" d="M398.5 187.2L430 339.8l389 78.8v-.1z" id="Layer_9"/><path class="st9" d="M430 339.8l84.2 357.7 305.2-278.8z" id="Layer_8"/><path class="st88" d="M56 92.5v-.1l-66-4.9v11.3z" id="Layer_7"/><path class="st89" d="M48.3 92.3l9.8.5L54-8h-64v95.5z" id="Layer_6"/></g></svg>