<svg aria-hidden="true" style="position: absolute; width: 0; height: 0; overflow: hidden;" version="1.1" xmlns="http://www.w3.org/2000/svg" xmlns:xlink="http://www.w3.org/1999/xlink">
<defs>
<symbol id="icon-cc" viewBox="0 0 16 16">
<title>cc</title>
<path d="M12 7.344v-0.688c0-0.375-0.281-0.656-0.656-0.656h-2c-0.375 0-0.688 0.281-0.688 0.656v2.688c0 0.375 0.313 0.656 0.688 0.656h2c0.375 0 0.656-0.281 0.656-0.656v-0.688h-1v0.344h-1.344v-2h1.344v0.344h1zM7.344 7.344v-0.688c0-0.375-0.313-0.656-0.688-0.656h-2c-0.375 0-0.656 0.281-0.656 0.656v2.688c0 0.375 0.281 0.656 0.656 0.656h2c0.375 0 0.688-0.281 0.688-0.656v-0.688h-1v0.344h-1.344v-2h1.344v0.344h1zM12.656 2.656c0.719 0 1.344 0.625 1.344 1.344v8c0 0.719-0.625 1.344-1.344 1.344h-9.313c-0.75 0-1.344-0.625-1.344-1.344v-8c0-0.719 0.594-1.344 1.344-1.344h9.313z"></path>
</symbol>
<symbol id="icon-spinner" viewBox="0 0 16 16">
<title>spinner</title>
<path d="M16 8c-0.020-1.045-0.247-2.086-0.665-3.038-0.417-0.953-1.023-1.817-1.766-2.53s-1.624-1.278-2.578-1.651c-0.953-0.374-1.978-0.552-2.991-0.531-1.013 0.020-2.021 0.24-2.943 0.646-0.923 0.405-1.758 0.992-2.449 1.712s-1.237 1.574-1.597 2.497c-0.361 0.923-0.533 1.914-0.512 2.895 0.020 0.981 0.234 1.955 0.627 2.847 0.392 0.892 0.961 1.7 1.658 2.368s1.523 1.195 2.416 1.543c0.892 0.348 1.851 0.514 2.799 0.493 0.949-0.020 1.89-0.227 2.751-0.608 0.862-0.379 1.642-0.929 2.287-1.604s1.154-1.472 1.488-2.335c0.204-0.523 0.342-1.069 0.415-1.622 0.019 0.001 0.039 0.002 0.059 0.002 0.552 0 1-0.448 1-1 0-0.028-0.001-0.056-0.004-0.083h0.004zM14.411 10.655c-0.367 0.831-0.898 1.584-1.55 2.206s-1.422 1.112-2.254 1.434c-0.832 0.323-1.723 0.476-2.608 0.454-0.884-0.020-1.759-0.215-2.56-0.57-0.801-0.354-1.526-0.867-2.125-1.495s-1.071-1.371-1.38-2.173c-0.31-0.801-0.457-1.66-0.435-2.512s0.208-1.694 0.551-2.464c0.342-0.77 0.836-1.468 1.441-2.044s1.321-1.029 2.092-1.326c0.771-0.298 1.596-0.438 2.416-0.416s1.629 0.202 2.368 0.532c0.74 0.329 1.41 0.805 1.963 1.387s0.988 1.27 1.272 2.011c0.285 0.74 0.418 1.532 0.397 2.32h0.004c-0.002 0.027-0.004 0.055-0.004 0.083 0 0.516 0.39 0.94 0.892 0.994-0.097 0.544-0.258 1.075-0.481 1.578z"></path>
</symbol>
<symbol id="icon-wave" viewBox="0 0 16 16">
<title>wave</title>
<path d="M7.5 15c-0.017 0-0.034-0.001-0.052-0.003-0.226-0.023-0.408-0.197-0.443-0.421l-1.595-10.369-1.423 6.401c-0.051 0.229-0.254 0.392-0.488 0.392h-3c-0.276 0-0.5-0.224-0.5-0.5s0.224-0.5 0.5-0.5h2.599l1.913-8.608c0.052-0.235 0.264-0.399 0.505-0.391s0.441 0.186 0.478 0.424l1.709 11.11 2.328-6.209c0.074-0.198 0.266-0.328 0.477-0.324s0.398 0.141 0.465 0.342l1.526 4.577 0.526-1.577c0.068-0.204 0.259-0.342 0.474-0.342h2c0.276 0 0.5 0.224 0.5 0.5s-0.224 0.5-0.5 0.5h-1.64l-0.886 2.658c-0.068 0.204-0.259 0.342-0.474 0.342s-0.406-0.138-0.474-0.342l-1.553-4.66-2.504 6.678c-0.074 0.197-0.261 0.324-0.468 0.324z"></path>
</symbol>
<symbol id="icon-download" viewBox="0 0 16 16">
<title>download</title>
<path d="M11.5 7l-4 4-4-4h2.5v-6h3v6zM7.5 11h-7.5v4h15v-4h-7.5zM14 13h-2v-1h2v1z"></path>
</symbol>
<symbol id="icon-play" viewBox="0 0 16 16">
<title>play</title>
<path d="M3 2l10 6-10 6z"></path>
</symbol>
<symbol id="icon-pause" viewBox="0 0 16 16">
<title>pause</title>
<path d="M2 2h5v12h-5zM9 2h5v12h-5z"></path>
</symbol>
<symbol id="icon-previous" viewBox="0 0 16 16">
<title>previous</title>
<path d="M4 14v-12h2v5.5l5-5v11l-5-5v5.5z"></path>
</symbol>
<symbol id="icon-next" viewBox="0 0 16 16">
<title>next</title>
<path d="M12 2v12h-2v-5.5l-5 5v-11l5 5v-5.5z"></path>
</symbol>
<symbol id="icon-arrow-down" viewBox="0 0 16 16">
<title>arrow-down</title>
<path d="M16 5.5l-1-1-7 7-7-7-1 1 8 8 8-8z"></path>
</symbol>
</defs>
</svg>
